<svg width="172" height="56" viewBox="0 0 172 56" fill="none" xmlns="http://www.w3.org/2000/svg">
<rect x="43.5312" width="128.469" height="48.8395" fill="#EBEBEB"/>
<rect x="2.5" y="37.5371" width="84.1852" height="8.80247" fill="#EBEBEB" stroke="#EBEBEB" stroke-width="5"/>
<circle cx="103.04" cy="43.4973" r="6.89569" fill="#EBEBEB" stroke="#9E9E9E" stroke-width="10"/>
<circle cx="103.235" cy="43.6915" r="2.12018" stroke="white" stroke-width="2"/>
<circle cx="128.392" cy="43.4973" r="6.89569" fill="#EBEBEB" stroke="#9E9E9E" stroke-width="10"/>
<circle cx="128.587" cy="43.6915" r="2.12018" stroke="white" stroke-width="2"/>
<circle cx="152.964" cy="43.4973" r="6.89569" fill="#EBEBEB" stroke="#9E9E9E" stroke-width="10"/>
<circle cx="153.159" cy="43.6915" r="2.12018" stroke="white" stroke-width="2"/>
<rect x="27.3008" y="7.80957" width="10.1406" height="40.5623" fill="#EBEBEB"/>
<path d="M0 23.0899L12.6757 7.80957H27.3016V48.3719H0V23.0899Z" fill="#EBEBEB"/>
<circle cx="20.1735" cy="43.5309" r="3.18519" fill="#EBEBEB"/>
<circle cx="20.1735" cy="43.5309" r="3.18519" fill="#EBEBEB"/>
<circle cx="20.1735" cy="43.5309" r="3.18519" fill="#EBEBEB"/>
<circle cx="20.1735" cy="43.5309" r="3.18519" fill="#EBEBEB"/>
<circle cx="20.1735" cy="43.5309" r="3.18519" fill="#EBEBEB"/>
<circle cx="20.1735" cy="43.5309" r="3.18519" fill="#EBEBEB"/>
<circle cx="20.1735" cy="43.5309" r="3.18519" fill="#EBEBEB"/>
<rect x="15.7969" y="9.75977" width="11.3107" height="13.6508" fill="#9E9E9E"/>
<path d="M15.5662 9.75977L26.9123 23.4106H4.29102L15.5662 9.75977Z" fill="#9E9E9E"/>
<circle cx="19.3058" cy="43.4973" r="6.89569" fill="#EBEBEB" stroke="#9E9E9E" stroke-width="10"/>
<circle cx="19.501" cy="43.6915" r="2.12018" stroke="white" stroke-width="2"/>
</svg>
