<svg width="37" height="27" viewBox="0 0 37 27" fill="none" xmlns="http://www.w3.org/2000/svg">
<rect width="37" height="27" rx="8" fill="#194351"/>
<g clip-path="url(#clip0_1166_50645)">
<path d="M14.6667 10.25C14.6667 10.875 14.4431 11.4062 13.9958 11.8438C13.5486 12.2812 13.0056 12.5 12.3667 12.5C11.7278 12.5 11.1847 12.2812 10.7375 11.8438C10.2903 11.4062 10.0667 10.875 10.0667 10.25C10.0667 9.625 10.2903 9.09375 10.7375 8.65625C11.1847 8.21875 11.7278 8 12.3667 8C13.0056 8 13.5486 8.21875 13.9958 8.65625C14.4431 9.09375 14.6667 9.625 14.6667 10.25ZM26.9333 14.75V20H10.0667V17.75L13.9 14L15.8167 15.875L21.95 9.875L26.9333 14.75ZM28.0833 6.5H8.91667C8.81285 6.5 8.723 6.53711 8.64714 6.61133C8.57127 6.68555 8.53333 6.77344 8.53333 6.875V21.125C8.53333 21.2266 8.57127 21.3145 8.64714 21.3887C8.723 21.4629 8.81285 21.5 8.91667 21.5H28.0833C28.1872 21.5 28.277 21.4629 28.3529 21.3887C28.4287 21.3145 28.4667 21.2266 28.4667 21.125V6.875C28.4667 6.77344 28.4287 6.68555 28.3529 6.61133C28.277 6.53711 28.1872 6.5 28.0833 6.5ZM30 6.875V21.125C30 21.6406 29.8123 22.082 29.437 22.4492C29.0616 22.8164 28.6104 23 28.0833 23H8.91667C8.38958 23 7.93837 22.8164 7.56302 22.4492C7.18767 22.082 7 21.6406 7 21.125V6.875C7 6.35938 7.18767 5.91797 7.56302 5.55078C7.93837 5.18359 8.38958 5 8.91667 5H28.0833C28.6104 5 29.0616 5.18359 29.437 5.55078C29.8123 5.91797 30 6.35938 30 6.875Z" fill="white"/>
</g>
<defs>
<clipPath id="clip0_1166_50645">
<rect width="23" height="18" fill="white" transform="translate(7 5)"/>
</clipPath>
</defs>
</svg>
