<svg width="37" height="27" viewBox="0 0 37 27" fill="none" xmlns="http://www.w3.org/2000/svg">
<rect width="37" height="27" rx="8" fill="#194351"/>
<path d="M7 7V13.2573H21.9944V7H7ZM27.3894 9.19505C25.7617 9.19505 23.1182 9.20316 23.1182 9.20316H22.7433L22.7388 13.6168C22.7388 13.6242 22.7418 13.6279 22.7418 13.6331V16.5804H21.9951V14.0059H7.00075V15.1067H8.8593C9.36611 15.0994 9.36611 15.8509 8.8593 15.8436H7V18.0541H10.0971C10.2632 17.4218 10.6383 16.8616 11.1634 16.4615C11.6886 16.0614 12.334 15.8441 12.9985 15.8436C13.6628 15.8441 14.308 16.0616 14.8329 16.4617C15.3578 16.8618 15.7326 17.4219 15.8984 18.0541H22.8423C23.0084 17.4218 23.3835 16.8616 23.9086 16.4615C24.4338 16.0614 25.0793 15.8441 25.7437 15.8436C26.408 15.8441 27.0532 16.0616 27.5781 16.4617C28.103 16.8618 28.4778 17.4219 28.6436 18.0541H30.9955V15.8436H29.8957C29.3889 15.8509 29.3889 15.0994 29.8957 15.1067H30.9955L31 13.6331H30.988C30.9932 13.5446 30.9637 13.4576 30.9055 13.3899L27.6697 9.32253C27.6348 9.28296 27.5916 9.25119 27.5431 9.22933C27.4946 9.20747 27.4419 9.19604 27.3886 9.19579L27.3894 9.19505ZM23.4931 9.93189H25.3629V13.2528H23.4886L23.4931 9.93411V9.93189ZM26.1126 9.93189H27.2199L29.8117 13.2602L26.1126 13.2528V9.93189ZM30.9873 13.636L30.9963 13.6463H30.9858L30.9873 13.636ZM24.218 14H25.0045C25.5113 13.9926 25.5113 14.7442 25.0045 14.7368H24.2443C23.7442 14.7538 23.718 14.0169 24.218 14ZM12.9978 16.5789C12.7024 16.5789 12.4099 16.6361 12.137 16.7472C11.8642 16.8583 11.6162 17.0211 11.4074 17.2264C11.1985 17.4317 11.0328 17.6753 10.9198 17.9435C10.8068 18.2117 10.7486 18.4992 10.7486 18.7895C10.7486 19.0798 10.8068 19.3672 10.9198 19.6354C11.0328 19.9036 11.1985 20.1473 11.4074 20.3526C11.6162 20.5578 11.8642 20.7206 12.137 20.8317C12.4099 20.9428 12.7024 21 12.9978 21C13.5943 21 14.1663 20.7671 14.5881 20.3526C15.0099 19.938 15.2469 19.3757 15.2469 18.7895C15.2469 18.2032 15.0099 17.6409 14.5881 17.2264C14.1663 16.8118 13.5943 16.5789 12.9978 16.5789ZM25.743 16.5789C25.4476 16.5789 25.1551 16.6361 24.8823 16.7472C24.6094 16.8583 24.3614 17.0211 24.1526 17.2264C23.9437 17.4317 23.7781 17.6753 23.665 17.9435C23.552 18.2117 23.4938 18.4992 23.4938 18.7895C23.4938 19.0798 23.552 19.3672 23.665 19.6354C23.7781 19.9036 23.9437 20.1473 24.1526 20.3526C24.3614 20.5578 24.6094 20.7206 24.8823 20.8317C25.1551 20.9428 25.4476 21 25.743 21C26.3395 21 26.9116 20.7671 27.3334 20.3526C27.7552 19.938 27.9921 19.3757 27.9921 18.7895C27.9921 18.2032 27.7552 17.6409 27.3334 17.2264C26.9116 16.8118 26.3395 16.5789 25.743 16.5789ZM12.9978 18.0526C13.1966 18.0526 13.3873 18.1303 13.5279 18.2684C13.6685 18.4066 13.7475 18.5941 13.7475 18.7895C13.7475 18.9849 13.6685 19.1723 13.5279 19.3105C13.3873 19.4487 13.1966 19.5263 12.9978 19.5263C12.7989 19.5263 12.6082 19.4487 12.4676 19.3105C12.327 19.1723 12.248 18.9849 12.248 18.7895C12.248 18.5941 12.327 18.4066 12.4676 18.2684C12.6082 18.1303 12.7989 18.0526 12.9978 18.0526ZM25.743 18.0526C25.9418 18.0526 26.1325 18.1303 26.2731 18.2684C26.4137 18.4066 26.4927 18.5941 26.4927 18.7895C26.4927 18.9849 26.4137 19.1723 26.2731 19.3105C26.1325 19.4487 25.9418 19.5263 25.743 19.5263C25.5441 19.5263 25.3534 19.4487 25.2128 19.3105C25.0722 19.1723 24.9933 18.9849 24.9933 18.7895C24.9933 18.5941 25.0722 18.4066 25.2128 18.2684C25.3534 18.1303 25.5441 18.0526 25.743 18.0526Z" fill="white"/>
</svg>
