<svg width="133" height="126" viewBox="0 0 133 126" fill="none" xmlns="http://www.w3.org/2000/svg">
<g filter="url(#filter0_d_1166_43092)">
<path d="M112.574 71.0663V81.6853L105.588 78.0525V67.7129L112.574 71.0663Z" fill="#2D3134"/>
<path opacity="0.39" d="M112.574 71.0663V81.6853L105.588 78.0525V67.7129L112.574 71.0663Z" fill="black"/>
<path d="M54.1694 93.1428C56.1256 92.025 58.0817 92.025 59.479 92.5839L63.3912 94.54C65.0679 95.0989 65.9062 96.7756 65.9062 99.0112C65.9062 103.203 62.2734 108.512 58.0817 110.748C55.8461 111.866 53.89 111.866 52.4928 111.307C52.4928 111.307 48.5805 109.351 48.301 109.071C46.9038 108.233 46.3449 106.836 46.3449 104.88C46.3449 100.408 49.9777 95.0989 54.1694 93.1428Z" fill="#2D3134"/>
<path opacity="0.39" d="M52.4922 111.03C51.9333 110.75 48.5799 109.073 48.3005 109.073C46.9032 108.235 46.3443 106.838 46.3443 104.882C46.3443 103.205 46.9032 101.249 47.7416 99.5723L51.6538 101.528C50.8155 103.205 50.2566 105.161 50.2566 106.838C50.2566 108.794 51.0949 110.471 52.4922 111.03Z" fill="black"/>
<path d="M52.2124 105.719C52.2124 109.072 54.7274 110.19 58.0808 108.513C61.4342 106.836 63.9492 102.924 63.9492 99.5707C63.9492 96.2173 61.4342 95.0995 58.0808 96.7762C54.7274 98.4529 52.2124 102.365 52.2124 105.719Z" fill="#999999"/>
<path opacity="0.15" d="M57.5219 108.514C60.8753 106.838 63.3903 102.926 63.3903 99.5721C63.3903 97.8954 62.8314 96.7776 61.7136 96.2188C63.1109 96.4982 63.9492 97.8954 63.9492 99.5721C63.9492 102.926 61.4342 106.838 58.0808 108.514C56.4041 109.353 55.0069 109.353 53.8891 108.794C55.0069 109.353 56.1247 109.073 57.5219 108.514Z" fill="black"/>
<path d="M55.0051 103.765C55.0051 105.162 56.1229 105.721 57.5201 104.883C58.9174 104.044 60.0352 102.647 60.0352 101.25C60.0352 99.8527 58.9174 99.2938 57.5201 100.132C56.1229 100.971 55.0051 102.368 55.0051 103.765Z" fill="#2D3134"/>
<path opacity="0.39" d="M55.0051 103.765C55.0051 105.162 56.1229 105.721 57.5201 104.883C58.9174 104.044 60.0352 102.647 60.0352 101.25C60.0352 99.8527 58.9174 99.2938 57.5201 100.132C56.1229 100.971 55.0051 102.368 55.0051 103.765Z" fill="black"/>
<path d="M55.5637 104.046C55.5637 105.443 56.6815 106.002 58.0787 105.164C59.476 104.605 60.5938 102.928 60.5938 101.531C60.5938 100.134 59.476 99.5751 58.0787 100.413C56.6815 100.972 55.5637 102.649 55.5637 104.046Z" fill="#2D3134"/>
<path opacity="0.06" d="M50.2572 106.836C50.2572 111.028 53.89 112.984 58.0817 110.748C62.2734 108.513 65.9062 103.203 65.9062 99.0116C65.9062 94.8199 62.2734 92.8638 58.0817 95.0994C53.89 97.0555 50.2572 102.365 50.2572 106.836Z" fill="black"/>
<path d="M100.279 69.9494C102.235 68.8317 104.191 68.8317 105.588 69.3905L109.501 71.3467C110.898 71.9056 112.016 73.5823 112.016 75.8179C112.016 80.0096 108.383 85.3191 104.191 87.5547C101.956 88.6725 99.9994 88.6725 98.6021 88.1136C98.6021 88.1136 94.6899 86.1574 94.4104 85.878C93.0132 85.0396 92.4543 83.6424 92.4543 81.6863C92.4543 77.4945 96.0871 72.185 100.279 69.9494Z" fill="#2D3134"/>
<path opacity="0.39" d="M98.6016 88.1156C98.0427 87.8361 94.6893 86.1594 94.4098 86.1594C93.0126 85.3211 92.4537 83.9238 92.4537 81.9677C92.4537 80.291 93.0126 78.3349 93.8509 76.6582L97.7632 78.6143C96.9249 80.291 96.366 82.2472 96.366 83.9239C96.366 85.88 97.2043 87.2772 98.6016 88.1156Z" fill="black"/>
<path d="M98.3218 82.8045C98.3218 86.1578 100.837 87.2756 104.19 85.5989C107.544 83.9222 110.059 80.01 110.059 76.6566C110.059 73.3032 107.544 72.1854 104.19 73.8621C100.837 75.5388 98.3218 79.4511 98.3218 82.8045Z" fill="#999999"/>
<path opacity="0.15" d="M103.631 85.3191C106.985 83.6425 109.5 79.7302 109.5 76.3768C109.5 74.7001 108.941 73.5823 107.823 73.0234C109.22 73.3029 110.059 74.7001 110.059 76.3768C110.059 79.7302 107.544 83.6425 104.19 85.3191C102.513 86.1575 101.116 86.1575 99.9985 85.5986C101.116 86.1575 102.234 86.1575 103.631 85.3191Z" fill="black"/>
<path d="M101.114 80.849C101.114 82.2462 102.232 82.8051 103.629 81.9668C105.027 81.4079 106.145 79.7312 106.145 78.3339C106.145 76.9367 105.027 76.3778 103.629 77.2162C102.232 77.7751 101.114 79.4517 101.114 80.849Z" fill="#2D3134"/>
<path opacity="0.39" d="M101.114 80.849C101.114 82.2462 102.232 82.8051 103.629 81.9668C105.027 81.4079 106.145 79.7312 106.145 78.3339C106.145 76.9367 105.027 76.3778 103.629 77.2162C102.232 77.7751 101.114 79.4517 101.114 80.849Z" fill="black"/>
<path d="M101.673 80.849C101.673 82.2462 102.791 82.8051 104.188 81.9668C105.585 81.1284 106.703 79.7312 106.703 78.3339C106.703 76.9367 105.585 76.3778 104.188 77.2162C102.791 78.0545 101.673 79.7312 101.673 80.849Z" fill="#2D3134"/>
<path opacity="0.06" d="M96.3665 83.6428C96.3665 87.8345 99.9994 89.7907 104.191 87.5551C108.383 85.3195 112.016 80.01 112.016 75.8183C112.016 71.6266 108.383 69.6704 104.191 71.906C99.9994 74.1416 96.3665 79.4511 96.3665 83.6428Z" fill="black"/>
<path d="M79.8773 4L119 23.5614V66.3169L68.6994 91.4672L29.5767 71.0675V29.1503L79.8773 4Z" fill="#D03E3E"/>
<path d="M119 62.6855V68.2745L68.6994 93.4248V87.8359L119 62.6855ZM29.5767 68.2745V73.8635L68.6994 93.4248V87.8359L29.5767 68.2745Z" fill="#2D3134"/>
<path opacity="0.06" d="M119 23.5625V68.2742L68.6994 93.4245V48.7128L119 23.5625Z" fill="black"/>
<path opacity="0.39" d="M29.5765 29.1504V73.862L68.6992 93.4234V48.7117L29.5765 29.1504Z" fill="black"/>
<path d="M10.0167 51.5065L26.7835 43.123L65.9062 62.6844V94.262C65.9062 95.1004 64.7885 95.6593 63.9501 95.1004C60.5967 92.3059 54.7283 94.262 50.5366 99.2921C48.0216 102.366 46.9038 105.719 46.9038 108.514L43.5504 110.191L4.42771 90.6292V68.2734L10.0167 51.5065Z" fill="#E5E5E5"/>
<path d="M42.4327 86.4377L47.1833 72.4653C47.4628 71.9064 47.1833 71.627 46.6244 71.3475L11.6935 54.0217C11.1346 53.7423 10.5757 54.0217 10.2962 54.5806L5.82505 67.7147C5.54561 68.2736 5.82506 68.553 6.38395 68.8325L41.0355 86.9966C41.5944 87.276 42.4327 86.9966 42.4327 86.4377Z" fill="#3399CC"/>
<path opacity="0.15" d="M36.0039 66.038L11.9714 54.0217C11.4125 53.7423 10.8536 54.0217 10.5742 54.5806L6.38243 66.8763L36.0039 66.038Z" fill="black"/>
<path d="M6.10115 67.7133L6.38061 66.875C6.38061 67.4339 6.38061 67.7133 6.93951 67.9928L41.591 86.1569C42.1499 86.4364 42.7088 86.1569 42.9883 85.598L42.7088 86.4364C42.4294 86.9953 41.8705 87.2747 41.3116 86.9953L6.66005 68.8311C6.10116 68.5517 5.8217 68.2722 6.10115 67.7133Z" fill="#2D3134"/>
<path d="M33.7695 85.0385L14.2082 75.2578V91.4658L33.7695 101.246V85.0385Z" fill="white"/>
<path d="M32.3711 99.0116L15.6042 90.6282V77.4941L32.3711 85.8776V99.0116Z" fill="#2D3134"/>
<path d="M4.42505 90.628V85.0391L43.5478 104.6V110.189L4.42505 90.628ZM49.1367 107.395L43.5478 110.189V104.6L49.1367 101.806V107.395Z" fill="#2D3134"/>
<path d="M32.3711 99.0143V101.809L15.6042 93.4253V90.6309L32.3711 99.0143Z" fill="white"/>
<path d="M50.5348 71.9074L61.1538 66.5979C61.4333 66.3185 61.9922 66.5979 61.9922 67.1568V75.5402C61.9922 76.0991 61.7127 76.658 61.1538 76.658L57.521 78.6142C57.2416 78.8936 56.9621 78.8936 56.6827 79.1731L53.0499 83.6442H52.7704L46.6226 86.7182C46.3431 86.9976 45.7842 86.4387 46.0637 86.1593L50.8143 72.1869C50.2554 72.1869 50.2554 71.9074 50.5348 71.9074Z" fill="#3399CC"/>
<path opacity="0.15" d="M45.5069 85.8798L51.0958 83.0853H51.3753L55.0081 78.6142C55.2875 78.3347 55.567 78.0553 55.8464 78.0553L59.4793 76.0991C60.0382 75.8197 60.3176 75.5402 60.3176 74.9813V66.8774L60.8765 66.5979C61.156 66.3185 61.7148 66.5979 61.7148 67.1568V75.5402C61.7148 76.0991 61.4354 76.658 60.8765 76.658L57.2437 78.6142C56.9642 78.8936 56.6848 78.8936 56.4053 79.1731L52.7725 83.6442H52.4931L46.3452 86.7182C45.7863 86.9976 45.5069 86.7182 45.5069 85.8798Z" fill="black"/>
<path d="M43.5481 99.014V104.603L44.9453 104.044V98.4551L43.5481 99.014Z" fill="#FFCC00"/>
<path d="M32.3711 87.8346V88.6729L15.6042 80.2895V79.4512L32.3711 87.8346ZM32.3711 90.6291V91.4674L15.6042 83.084V82.2457L32.3711 90.6291ZM32.3711 93.4236V94.2619L15.6042 85.8785V85.0401L32.3711 93.4236ZM32.3711 96.218V97.0564L15.6042 88.6729V87.8346L32.3711 96.218Z" fill="#E5E5E5"/>
<path opacity="0.5" d="M61.7148 80.2891V81.6863L58.9204 83.0835V81.6863L61.7148 80.2891Z" fill="#2D3134"/>
<path opacity="0.5" d="M58.9204 83.6417L61.7148 82.2444V81.6855L58.9204 83.0828V83.6417Z" fill="white"/>
<path d="M22.5909 67.9939C22.8703 67.7144 23.1498 67.7144 23.4292 67.9939L34.0482 80.0101C34.3277 80.2896 34.3277 80.569 34.0482 80.8485C33.7688 81.1279 33.4893 81.1279 33.2099 80.8485L30.4154 77.4951V80.2896H29.5771V76.6567L22.5909 68.5528C22.3114 68.5528 22.3114 67.9939 22.5909 67.9939ZM12.5307 62.4049C12.8102 62.1255 13.0896 62.1255 13.3691 62.4049L23.9881 74.4212C24.2676 74.7006 24.2676 74.9801 23.9881 75.2595C23.7087 75.539 23.4292 75.539 23.1498 75.2595L20.6347 72.465V75.539H19.7964V71.6267L12.5307 63.2432C12.2513 62.9638 12.2513 62.6843 12.5307 62.4049Z" fill="#2D3134"/>
<path d="M10.0156 87.8346L4.42667 85.0401V79.4512L7.22115 80.8484C8.89783 81.6868 10.0156 83.3634 10.0156 85.3196V87.8346Z" fill="white"/>
<path opacity="0.3" d="M8.97699 82.9307C9.75641 83.8883 9.90308 85.0594 9.3046 85.5466C8.70612 86.0337 7.58911 85.6523 6.8097 84.6948C6.03028 83.7372 5.8836 82.566 6.48208 82.0789C7.08056 81.5918 8.19757 81.9731 8.97699 82.9307Z" fill="#2D3134"/>
<path opacity="0.3" d="M7.57855 82.9307C8.35797 83.8883 8.50464 85.0594 7.90616 85.5466C7.30768 86.0337 6.19068 85.6523 5.41126 84.6948C4.63184 83.7372 4.48516 82.566 5.08365 82.0789C5.68213 81.5918 6.79913 81.9731 7.57855 82.9307Z" fill="#2D3134"/>
<path opacity="0.3" d="M10.0156 87.8346L4.42667 85.0401V79.4512L10.0156 87.8346Z" fill="white"/>
<path d="M43.5508 104.601L37.9618 101.806V99.2912C37.9618 97.894 39.3591 97.0556 40.7563 97.6145L43.5508 99.0118V104.601Z" fill="white"/>
<path opacity="0.3" d="M41.1098 99.6924C41.8892 100.65 42.0359 101.821 41.4374 102.308C40.8389 102.795 39.7219 102.414 38.9425 101.456C38.1631 100.499 38.0164 99.3278 38.6149 98.8406C39.2134 98.3535 40.3304 98.7348 41.1098 99.6924Z" fill="#2D3134"/>
<path opacity="0.3" d="M42.5082 99.6924C43.2877 100.65 43.4343 101.821 42.8359 102.308C42.2374 102.795 41.1204 102.414 40.3409 101.456C39.5615 100.499 39.4149 99.3278 40.0133 98.8406C40.6118 98.3535 41.7288 98.7348 42.5082 99.6924Z" fill="#2D3134"/>
<path opacity="0.3" d="M43.5508 104.601L37.9618 101.806L43.5508 99.0117V104.601Z" fill="white"/>
<path opacity="0.06" d="M49.1394 71.069L65.9062 62.6855V94.2632C65.9062 95.1015 64.7885 95.6604 63.9501 95.1015C60.5967 92.307 54.7283 94.2632 50.5366 99.2932C49.6983 100.132 49.1394 100.97 48.8599 102.088L49.1394 101.808V107.397L43.5504 110.192V87.8359L49.1394 71.069Z" fill="black"/>
<path opacity="0.39" d="M10.014 51.5078L49.1367 71.0692L43.5478 87.836V110.192L4.42505 90.6305V68.2747L10.014 51.5078Z" fill="black"/>
</g>
<defs>
<filter id="filter0_d_1166_43092" x="0.425781" y="0" width="132.574" height="125.684" filterUnits="userSpaceOnUse" color-interpolation-filters="sRGB">
<feFlood flood-opacity="0" result="BackgroundImageFix"/>
<feColorMatrix in="SourceAlpha" type="matrix" values="0 0 0 0 0 0 0 0 0 0 0 0 0 0 0 0 0 0 127 0" result="hardAlpha"/>
<feOffset dx="5" dy="5"/>
<feGaussianBlur stdDeviation="4.5"/>
<feColorMatrix type="matrix" values="0 0 0 0 0.739062 0 0 0 0 0.739062 0 0 0 0 0.739062 0 0 0 0.25 0"/>
<feBlend mode="normal" in2="BackgroundImageFix" result="effect1_dropShadow_1166_43092"/>
<feBlend mode="normal" in="SourceGraphic" in2="effect1_dropShadow_1166_43092" result="shape"/>
</filter>
</defs>
</svg>
