<svg width="140" height="46" viewBox="0 0 140 46" fill="none" xmlns="http://www.w3.org/2000/svg">
<rect x="35.4297" width="104.568" height="40.3466" fill="#EBEBEB"/>
<rect x="2.03488" y="30.9792" width="68.5228" height="7.33254" fill="#EBEBEB" stroke="#EBEBEB" stroke-width="4.06977"/>
<path d="M89.4828 35.9335C89.4828 39.1703 86.9132 41.6909 83.87 41.6909C80.8268 41.6909 78.2573 39.1703 78.2573 35.9335C78.2573 32.6968 80.8268 30.1762 83.87 30.1762C86.9132 30.1762 89.4828 32.6968 89.4828 35.9335Z" fill="#EBEBEB" stroke="#9E9E9E" stroke-width="8.13953"/>
<path d="M85.7537 36.0942C85.7537 37.0797 84.9697 37.8579 84.028 37.8579C83.0862 37.8579 82.3022 37.0797 82.3022 36.0942C82.3022 35.1088 83.0862 34.3306 84.028 34.3306C84.9697 34.3306 85.7537 35.1088 85.7537 36.0942Z" stroke="white" stroke-width="1.62791"/>
<path d="M110.116 35.9335C110.116 39.1703 107.546 41.6909 104.503 41.6909C101.46 41.6909 98.8901 39.1703 98.8901 35.9335C98.8901 32.6968 101.46 30.1762 104.503 30.1762C107.546 30.1762 110.116 32.6968 110.116 35.9335Z" fill="#EBEBEB" stroke="#9E9E9E" stroke-width="8.13953"/>
<path d="M106.387 36.0942C106.387 37.0797 105.603 37.8579 104.661 37.8579C103.719 37.8579 102.935 37.0797 102.935 36.0942C102.935 35.1088 103.719 34.3306 104.661 34.3306C105.603 34.3306 106.387 35.1088 106.387 36.0942Z" stroke="white" stroke-width="1.62791"/>
<path d="M130.12 35.9335C130.12 39.1703 127.55 41.6909 124.507 41.6909C121.464 41.6909 118.894 39.1703 118.894 35.9335C118.894 32.6968 121.464 30.1762 124.507 30.1762C127.55 30.1762 130.12 32.6968 130.12 35.9335Z" fill="#EBEBEB" stroke="#9E9E9E" stroke-width="8.13953"/>
<path d="M126.39 36.0942C126.39 37.0797 125.606 37.8579 124.665 37.8579C123.723 37.8579 122.939 37.0797 122.939 36.0942C122.939 35.1088 123.723 34.3306 124.665 34.3306C125.606 34.3306 126.39 35.1088 126.39 36.0942Z" stroke="white" stroke-width="1.62791"/>
<rect x="22.2188" y="6.45117" width="8.25397" height="33.5088" fill="#EBEBEB"/>
<path d="M0 19.0744L10.3175 6.45117H22.2222V39.96H0V19.0744Z" fill="#EBEBEB"/>
<ellipse cx="16.4207" cy="35.9614" rx="2.59259" ry="2.6313" fill="#EBEBEB"/>
<ellipse cx="16.4207" cy="35.9614" rx="2.59259" ry="2.6313" fill="#EBEBEB"/>
<ellipse cx="16.4207" cy="35.9614" rx="2.59259" ry="2.6313" fill="#EBEBEB"/>
<ellipse cx="16.4207" cy="35.9614" rx="2.59259" ry="2.6313" fill="#EBEBEB"/>
<ellipse cx="16.4207" cy="35.9614" rx="2.59259" ry="2.6313" fill="#EBEBEB"/>
<ellipse cx="16.4207" cy="35.9614" rx="2.59259" ry="2.6313" fill="#EBEBEB"/>
<ellipse cx="16.4207" cy="35.9614" rx="2.59259" ry="2.6313" fill="#EBEBEB"/>
<rect x="12.8594" y="8.0625" width="9.20635" height="11.277" fill="#9E9E9E"/>
<path d="M12.6696 8.0625L21.9049 19.3395H3.49219L12.6696 8.0625Z" fill="#9E9E9E"/>
<path d="M21.3266 35.9335C21.3266 39.1703 18.757 41.6909 15.7138 41.6909C12.6706 41.6909 10.101 39.1703 10.101 35.9335C10.101 32.6968 12.6706 30.1762 15.7138 30.1762C18.757 30.1762 21.3266 32.6968 21.3266 35.9335Z" fill="#EBEBEB" stroke="#9E9E9E" stroke-width="8.13953"/>
<path d="M17.5974 36.0942C17.5974 37.0797 16.8135 37.8579 15.8717 37.8579C14.93 37.8579 14.146 37.0797 14.146 36.0942C14.146 35.1088 14.93 34.3306 15.8717 34.3306C16.8135 34.3306 17.5974 35.1088 17.5974 36.0942Z" stroke="white" stroke-width="1.62791"/>
</svg>
