<svg width="31" height="29" viewBox="0 0 31 29" fill="none" xmlns="http://www.w3.org/2000/svg">
<path d="M15.5371 0.396484L18.5628 3.49043L22.1934 13.8036L25.6223 21.0228L15.5371 24.1167L5.85547 22.0541L11.5031 5.55306L15.5371 0.396484Z" fill="white"/>
<path d="M15.542 17.5182C19.3214 17.5182 22.4873 16.2341 22.6786 14.5563L20.8996 9.5719C20.4821 10.7753 18.1718 11.6292 15.542 11.6292C12.9122 11.6292 10.6018 10.7753 10.1844 9.5719L8.40693 14.5563C8.59827 16.2341 11.7625 17.5182 15.542 17.5182ZM15.542 6.91524C17.3194 6.91524 18.9688 6.36493 19.4526 5.50942C18.7869 3.64027 18.216 2.0352 17.8539 1.02471C17.6135 0.349478 16.524 0 15.542 0C14.56 0 13.4704 0.349478 13.23 1.02471L11.6313 5.50942C12.1152 6.36493 13.7661 6.91524 15.542 6.91524ZM29.4262 19.0806L23.4882 16.6864L24.173 18.5951C24.1382 20.6176 20.2133 22.2306 15.542 22.2306C10.8722 22.2306 6.94418 20.6192 6.91097 18.5951L7.5957 16.6864L1.65773 19.0806C-0.00742874 19.751 -0.0785896 20.9924 1.50276 21.8384L12.6702 27.827C14.2484 28.673 16.8339 28.673 18.4137 27.827L29.5828 21.8384C31.1625 20.9924 31.0914 19.751 29.4262 19.0806Z" fill="#FF8400"/>
</svg>
