<svg width="167" height="124" viewBox="0 0 167 124" fill="none" xmlns="http://www.w3.org/2000/svg">
<g filter="url(#filter0_d_406_716)">
<path opacity="0.2" d="M102.762 35.9287L4 85.3097L53.3809 110L152.143 60.6192L102.762 35.9287Z" fill="black"/>
<path d="M120.216 69.5587L124.047 71.6872V67.4302L120.216 65.3018V69.5587Z" fill="#999999"/>
<path opacity="0.06" d="M120.216 69.5587L124.047 71.6872V67.4302L120.216 65.3018V69.5587Z" fill="black"/>
<path d="M125.324 70.9572L124.047 71.687V67.3084L125.324 66.5786V70.9572Z" fill="#999999"/>
<path opacity="0.39" d="M125.324 70.9572L124.047 71.687V67.3084L125.324 66.5786V70.9572Z" fill="black"/>
<path d="M70.4092 95.7694L72.9634 97.229V93.5801L70.4092 92.1206V95.7694Z" fill="#999999"/>
<path opacity="0.06" d="M70.4092 95.7694L72.9634 97.229V93.5801L70.4092 92.1206V95.7694Z" fill="black"/>
<path d="M75.5171 96.3776L72.9629 97.229V92.972L75.5171 92.1206V96.3776Z" fill="#999999"/>
<path opacity="0.39" d="M75.5171 96.3776L72.9629 97.229V92.972L75.5171 92.1206V96.3776Z" fill="black"/>
<path d="M147.585 58.9165L147.43 58.9927C142.486 61.4326 137.001 62.8812 131.438 63.1099H131.284C125.722 63.3387 120.236 64.7873 115.292 67.2271L103.472 73.098C99.9184 74.8516 71.952 89.2618 69.0936 91.9303L60.5955 99.936C57.8143 102.605 54.5696 104.816 51.1704 106.493L48.6982 107.713L53.2563 110L55.6512 108.857C59.2049 107.103 62.4496 104.816 65.3081 102.147L73.6516 94.2939C76.5101 91.6253 79.7548 89.338 83.3085 87.5844L119.85 69.5907C124.795 67.1509 130.28 65.7023 135.842 65.4735H135.997C141.559 65.2448 147.044 63.7961 151.988 61.3563L152.143 61.2038L147.585 58.9165Z" fill="#999999"/>
<path d="M147.585 58.9165L147.43 58.9927C142.486 61.4326 137.001 62.8812 131.438 63.1099H131.284C125.722 63.3387 120.236 64.7873 115.292 67.2271L103.472 73.098C99.9184 74.8516 71.952 89.2618 69.0936 91.9303L60.5955 99.936C57.8143 102.605 54.5696 104.816 51.1704 106.493L48.6982 107.713L53.2563 110L55.6512 108.857C59.2049 107.103 62.4496 104.816 65.3081 102.147L73.6516 94.2939C76.5101 91.6253 79.7548 89.338 83.3085 87.5844L119.85 69.5907C124.795 67.1509 130.28 65.7023 135.842 65.4735H135.997C141.559 65.2448 147.044 63.7961 151.988 61.3563L152.143 61.2038L147.585 58.9165Z" fill="#999999"/>
<path d="M51.5354 107.474C54.9816 105.679 58.1216 103.416 60.8785 100.762L69.3027 92.5678C72.1363 89.8363 99.8593 75.0078 103.382 73.2908L115.099 67.2814C120.001 64.7839 125.361 63.3791 130.875 63.067H131.105C132.79 62.9889 134.551 62.7548 136.236 62.4426C136.313 62.4426 136.389 62.4426 136.466 62.3646C136.926 62.2865 137.462 62.1304 137.921 62.0524C138.074 62.0524 138.151 61.9743 138.304 61.9743C138.764 61.8963 139.223 61.7402 139.683 61.5841C139.836 61.5841 139.912 61.5061 140.065 61.5061C140.525 61.35 140.984 61.1939 141.521 61.0378H141.597C142.669 60.6476 143.741 60.2574 144.814 59.7891L146.881 58.8525L147.034 58.7745L107.135 38.4829C102.157 41.0584 96.6428 42.5412 91.0523 42.7754C85.5383 43.0095 80.1009 44.4923 75.123 46.9898L38.9758 65.4083C35.453 67.2033 32.2365 69.5447 29.4029 72.2762L21.0554 80.3148C18.2218 83.0464 15.0053 85.3877 11.4825 87.1827L9.1084 88.4314L49.0848 108.723L51.5354 107.474Z" fill="#656565"/>
<path d="M107.445 38.2732L102.887 35.9287L102.732 36.0069C97.7877 38.5077 92.3026 39.9925 86.7402 40.227H86.5857C81.0233 40.4614 75.5382 41.9463 70.5939 44.4471L34.0522 62.8906C30.4985 64.6881 27.2538 67.0326 24.3953 69.7679L16.0518 77.8955C13.1934 80.6308 9.94864 82.9753 6.39491 84.7728L4 85.945L8.55805 88.2895L10.953 87.0391C14.5067 85.2417 17.7514 82.8972 20.6098 80.1619L28.9534 72.1124C31.8118 69.3771 35.0565 67.0326 38.6103 65.2351L75.1519 46.7916C80.1735 44.2908 85.6586 42.806 91.221 42.5715C96.8606 42.3371 102.423 40.8522 107.445 38.2732Z" fill="#999999"/>
<path d="M107.445 38.2732L102.887 35.9287L102.732 36.0069C97.7877 38.5077 92.3026 39.9925 86.7402 40.227H86.5857C81.0233 40.4614 75.5382 41.9463 70.5939 44.4471L34.0522 62.8906C30.4985 64.6881 27.2538 67.0326 24.3953 69.7679L16.0518 77.8955C13.1934 80.6308 9.94864 82.9753 6.39491 84.7728L4 85.945L8.55805 88.2895L10.953 87.0391C14.5067 85.2417 17.7514 82.8972 20.6098 80.1619L28.9534 72.1124C31.8118 69.3771 35.0565 67.0326 38.6103 65.2351L75.1519 46.7916C80.1735 44.2908 85.6586 42.806 91.221 42.5715C96.8606 42.3371 102.423 40.8522 107.445 38.2732Z" fill="#999999"/>
<path d="M51.5354 107.474C54.9816 105.679 58.1216 103.416 60.8785 100.762L69.3027 92.5678C72.1363 89.8363 99.8593 75.0078 103.382 73.2908L115.099 67.2814C120.001 64.7839 125.361 63.3791 130.875 63.067H131.105C132.79 62.9889 134.551 62.7548 136.236 62.4426C136.313 62.4426 136.389 62.4426 136.466 62.3646C136.926 62.2865 137.462 62.1304 137.921 62.0524C138.074 62.0524 138.151 61.9743 138.304 61.9743C138.764 61.8963 139.223 61.7402 139.683 61.5841C139.836 61.5841 139.912 61.5061 140.065 61.5061C140.525 61.35 140.984 61.1939 141.521 61.0378H141.597C142.669 60.6476 143.741 60.2574 144.814 59.7891L146.881 58.8525L147.034 58.7745L107.135 38.4829C102.157 41.0584 96.6428 42.5412 91.0523 42.7754C85.5383 43.0095 80.1009 44.4923 75.123 46.9898L38.9758 65.4083C35.453 67.2033 32.2365 69.5447 29.4029 72.2762L21.0554 80.3148C18.2218 83.0464 15.0053 85.3877 11.4825 87.1827L9.1084 88.4314L49.0848 108.723L51.5354 107.474Z" fill="#656565"/>
<path opacity="0.15" d="M130.973 61.5991H130.741C125.181 61.8367 119.776 63.3415 114.834 65.8759L102.942 71.9743C99.3897 73.7959 71.4362 88.7646 68.5791 91.5366L60.0849 99.8525C57.305 102.625 54.0618 104.921 50.6641 106.664L47.4209 108.327L48.1931 108.723L50.6641 107.456C54.139 105.634 57.305 103.337 60.0849 100.645L68.5791 92.3286C71.4362 89.5566 99.3897 74.5087 102.942 72.7663L114.834 66.6679C119.776 64.1335 125.181 62.7079 130.741 62.3911H130.973C136.455 62.1535 141.783 60.7279 146.725 58.1936L147.034 58.0352L146.185 57.6392C141.397 60.0151 136.223 61.3615 130.973 61.5991Z" fill="black"/>
<path d="M127.029 48.6997C122.091 51.1669 116.844 52.4776 111.289 52.786H111.134C105.502 53.0173 100.1 54.4822 95.0079 56.9494L58.5884 75.2221C55.0391 76.9954 51.7212 79.3084 48.7892 82.084L40.4559 90.0253C37.601 92.7238 34.3603 95.0368 30.8881 96.733L28.2646 98.0437L29.1134 98.5064L31.2739 97.4269C34.8232 95.6536 38.1411 93.3406 40.996 90.565L49.3293 82.6237C52.1842 79.9252 55.4249 77.6122 58.8971 75.916L95.3937 57.7204C100.332 55.2532 105.656 53.8654 111.211 53.6341H111.366C116.998 53.4028 122.4 51.9379 127.492 49.4707L127.878 49.2394L127.029 48.6997Z" fill="#E5E5E5"/>
<path opacity="0.15" d="M11.5004 87.5162C15.0497 85.7374 18.2904 83.4172 21.1453 80.7103L29.4786 72.7443C32.3335 70.0374 35.5742 67.7172 39.1236 65.9384L75.6201 47.6863C80.6355 45.2114 86.1139 43.742 91.6694 43.51C97.302 43.278 102.858 41.8085 107.873 39.2563L108.722 38.8696L107.95 38.4829C102.935 41.0351 97.3792 42.5046 91.7465 42.7366C86.191 42.9686 80.7127 44.4381 75.6973 46.9129L39.2007 65.0877C35.6514 66.8665 32.4107 69.1867 29.5557 71.8936L21.1453 79.8595C18.2904 82.5664 15.0497 84.8866 11.5004 86.6654L9.1084 87.9029L9.88 88.2896L11.5004 87.5162Z" fill="black"/>
<path opacity="0.3" d="M126.601 58.7328L96.8132 42.313L33.3728 72.9632L65.2067 88.2883L126.601 58.7328Z" fill="#56E4EE"/>
<path d="M115.576 52.4108V60.076L110.533 57.4537V49.9902L115.576 52.4108Z" fill="#2D3134"/>
<path opacity="0.39" d="M115.576 52.4108V60.076L110.533 57.4537V49.9902L115.576 52.4108Z" fill="black"/>
<path d="M73.4176 68.3471C74.8296 67.5403 76.2416 67.5403 77.2502 67.9437L80.0742 69.3557C81.2845 69.7591 81.8896 70.9694 81.8896 72.5832C81.8896 75.6089 79.2673 79.4415 76.2416 81.0552C74.6279 81.8621 73.2159 81.8621 72.2073 81.4586C72.2073 81.4586 69.3833 80.0466 69.1816 79.8449C68.173 79.2398 67.7696 78.2312 67.7696 76.8192C67.7696 73.5917 70.3919 69.7591 73.4176 68.3471Z" fill="#2D3134"/>
<path opacity="0.39" d="M72.207 81.2571C71.8036 81.0554 69.383 79.8451 69.1813 79.8451C68.1727 79.24 67.7693 78.2314 67.7693 76.8194C67.7693 75.6091 68.1727 74.1971 68.7779 72.9868L71.6019 74.3988C70.9967 75.6091 70.5933 77.0211 70.5933 78.2314C70.5933 79.6434 71.1985 80.8537 72.207 81.2571Z" fill="black"/>
<path d="M72.0055 77.425C72.0055 79.8456 73.8209 80.6525 76.2415 79.4422C78.6621 78.2319 80.4775 75.4078 80.4775 72.9873C80.4775 70.5667 78.6621 69.7598 76.2415 70.9701C73.8209 72.1804 72.0055 75.0044 72.0055 77.425Z" fill="#999999"/>
<path opacity="0.15" d="M75.8381 79.4429C78.2587 78.2326 80.0741 75.4086 80.0741 72.988C80.0741 71.7777 79.6707 70.9708 78.8638 70.5674C79.8724 70.7691 80.4775 71.7777 80.4775 72.988C80.4775 75.4086 78.6621 78.2326 76.2415 79.4429C75.0312 80.048 74.0226 80.048 73.2158 79.6446C74.0226 80.048 74.8295 79.8463 75.8381 79.4429Z" fill="black"/>
<path d="M74.0224 76.0131C74.0224 77.0216 74.8293 77.4251 75.8379 76.8199C76.8465 76.2148 77.6533 75.2062 77.6533 74.1976C77.6533 73.1891 76.8465 72.7856 75.8379 73.3908C74.8293 73.9959 74.0224 75.0045 74.0224 76.0131Z" fill="#2D3134"/>
<path opacity="0.39" d="M74.0224 76.0131C74.0224 77.0216 74.8293 77.4251 75.8379 76.8199C76.8465 76.2148 77.6533 75.2062 77.6533 74.1976C77.6533 73.1891 76.8465 72.7856 75.8379 73.3908C74.8293 73.9959 74.0224 75.0045 74.0224 76.0131Z" fill="black"/>
<path d="M74.4258 76.2138C74.4258 77.2223 75.2326 77.6258 76.2412 77.0206C77.2498 76.6172 78.0566 75.4069 78.0566 74.3983C78.0566 73.3897 77.2498 72.9863 76.2412 73.5915C75.2326 73.9949 74.4258 75.2052 74.4258 76.2138Z" fill="#2D3134"/>
<path opacity="0.06" d="M70.5936 78.2302C70.5936 81.2559 73.2159 82.6679 76.2416 81.0542C79.2673 79.4405 81.8896 75.6079 81.8896 72.5822C81.8896 69.5564 79.2673 68.1444 76.2416 69.7581C73.2159 71.1701 70.5936 75.0027 70.5936 78.2302Z" fill="black"/>
<path d="M106.701 51.6054C108.113 50.7986 109.525 50.7986 110.533 51.202L113.357 52.614C114.366 53.0174 115.173 54.2277 115.173 55.8415C115.173 58.8672 112.551 62.6998 109.525 64.3135C107.911 65.1204 106.499 65.1204 105.491 64.7169C105.491 64.7169 102.666 63.3049 102.465 63.1032C101.456 62.4981 101.053 61.4895 101.053 60.0775C101.053 57.0518 103.675 53.2192 106.701 51.6054Z" fill="#2D3134"/>
<path opacity="0.39" d="M105.49 64.7171C105.087 64.5154 102.666 63.3051 102.465 63.3051C101.456 62.7 101.052 61.6914 101.052 60.2794C101.052 59.0691 101.456 57.6571 102.061 56.4468L104.885 57.8588C104.28 59.0691 103.877 60.4811 103.877 61.6914C103.877 63.1034 104.482 64.112 105.49 64.7171Z" fill="black"/>
<path d="M105.289 60.8835C105.289 63.3041 107.104 64.1109 109.525 62.9007C111.945 61.6904 113.761 58.8663 113.761 56.4458C113.761 54.0252 111.945 53.2183 109.525 54.4286C107.104 55.6389 105.289 58.4629 105.289 60.8835Z" fill="#999999"/>
<path opacity="0.15" d="M109.121 62.6982C111.542 61.4879 113.357 58.6639 113.357 56.2433C113.357 55.033 112.954 54.2262 112.147 53.8228C113.156 54.0245 113.761 55.033 113.761 56.2433C113.761 58.6639 111.945 61.4879 109.525 62.6982C108.314 63.3034 107.306 63.3034 106.499 62.9C107.306 63.3034 108.113 63.3034 109.121 62.6982Z" fill="black"/>
<path d="M107.306 59.4721C107.306 60.4806 108.113 60.8841 109.121 60.2789C110.13 59.8755 110.937 58.6652 110.937 57.6566C110.937 56.648 110.13 56.2446 109.121 56.8498C108.113 57.2532 107.306 58.4635 107.306 59.4721Z" fill="#2D3134"/>
<path opacity="0.39" d="M107.306 59.4721C107.306 60.4806 108.113 60.8841 109.121 60.2789C110.13 59.8755 110.937 58.6652 110.937 57.6566C110.937 56.648 110.13 56.2446 109.121 56.8498C108.113 57.2532 107.306 58.4635 107.306 59.4721Z" fill="black"/>
<path d="M107.709 59.4721C107.709 60.4806 108.516 60.8841 109.524 60.2789C110.533 59.6738 111.34 58.6652 111.34 57.6566C111.34 56.648 110.533 56.2446 109.524 56.8498C108.516 57.4549 107.709 58.6652 107.709 59.4721Z" fill="#2D3134"/>
<path opacity="0.06" d="M103.877 61.4885C103.877 64.5142 106.499 65.9262 109.525 64.3125C112.551 62.6988 115.173 58.8662 115.173 55.8405C115.173 52.8147 112.551 51.4027 109.525 53.0164C106.499 54.6302 103.877 58.4628 103.877 61.4885Z" fill="black"/>
<path d="M91.9757 4L120.216 18.1201V48.9825L83.907 67.1369L55.6669 52.4117V22.1544L91.9757 4Z" fill="#5671EE"/>
<path d="M120.216 46.3599V50.3942L83.907 68.5486V64.5143L120.216 46.3599ZM55.6669 50.3942V54.4285L83.907 68.5486V64.5143L55.6669 50.3942Z" fill="#2D3134"/>
<path opacity="0.06" d="M120.216 18.1206V50.3951L83.907 68.5495V36.275L120.216 18.1206Z" fill="black"/>
<path opacity="0.39" d="M55.6661 22.1548V54.4293L83.9062 68.5493V36.2749L55.6661 22.1548Z" fill="black"/>
<path d="M41.5466 38.2907L53.6495 32.2393L81.8896 46.3593V69.1532C81.8896 69.7583 81.0828 70.1618 80.4776 69.7583C78.0571 67.7412 73.821 69.1532 70.7953 72.7841C68.9799 75.0029 68.173 77.4235 68.173 79.4407L65.7524 80.651L37.5122 66.5309V50.3937L41.5466 38.2907Z" fill="#E5E5E5"/>
<path d="M64.9458 63.506L68.375 53.4202C68.5767 53.0168 68.375 52.815 67.9715 52.6133L42.7571 40.107C42.3537 39.9053 41.9502 40.107 41.7485 40.5104L38.5211 49.991C38.3194 50.3945 38.5211 50.5962 38.9245 50.7979L63.9372 63.9094C64.3407 64.1111 64.9458 63.9094 64.9458 63.506Z" fill="#3399CC"/>
<path opacity="0.15" d="M60.3057 48.7807L42.9581 40.107C42.5547 39.9053 42.1513 40.107 41.9496 40.5104L38.9238 49.3859L60.3057 48.7807Z" fill="black"/>
<path d="M38.7222 49.9904L38.9239 49.3853C38.9239 49.7887 38.9239 49.9904 39.3273 50.1921L64.3401 63.3036C64.7435 63.5053 65.1469 63.3036 65.3486 62.9002L65.1469 63.5053C64.9452 63.9088 64.5418 64.1105 64.1383 63.9088L39.1256 50.7973C38.7222 50.5955 38.5205 50.3938 38.7222 49.9904Z" fill="#2D3134"/>
<path d="M58.6924 62.4966L44.5723 55.4365V67.136L58.6924 74.1961V62.4966Z" fill="white"/>
<path d="M57.6836 72.5839L45.5807 66.5324V57.0518L57.6836 63.1032V72.5839Z" fill="#2D3134"/>
<path d="M37.5117 66.5314V62.4971L65.7518 76.6172V80.6515L37.5117 66.5314ZM69.7861 78.6343L65.7518 80.6515V76.6172L69.7861 74.6V78.6343Z" fill="#2D3134"/>
<path d="M57.6836 72.5842V74.6013L45.5807 68.5499V66.5327L57.6836 72.5842Z" fill="white"/>
<path d="M70.7951 53.0177L78.4603 49.1851C78.662 48.9834 79.0654 49.1851 79.0654 49.5885V55.64C79.0654 56.0434 78.8637 56.4468 78.4603 56.4468L75.838 57.8589C75.6363 58.0606 75.4346 58.0606 75.2328 58.2623L72.6105 61.4897H72.4088L67.9711 63.7086C67.7694 63.9103 67.3659 63.5069 67.5676 63.3052L70.9968 53.2194C70.5934 53.2194 70.5934 53.0177 70.7951 53.0177Z" fill="#3399CC"/>
<path opacity="0.15" d="M67.1638 63.1035L71.1981 61.0863H71.3998L74.0221 57.8589C74.2238 57.6571 74.4255 57.4554 74.6273 57.4554L77.2496 56.0434C77.653 55.8417 77.8547 55.64 77.8547 55.2366V49.3868L78.2581 49.1851C78.4599 48.9834 78.8633 49.1851 78.8633 49.5885V55.64C78.8633 56.0434 78.6616 56.4468 78.2581 56.4468L75.6358 57.8589C75.4341 58.0606 75.2324 58.0606 75.0307 58.2623L72.4084 61.4897H72.2067L67.7689 63.7086C67.3655 63.9103 67.1638 63.7086 67.1638 63.1035Z" fill="black"/>
<path d="M65.7522 72.5831V76.6174L66.7607 76.214V72.1797L65.7522 72.5831Z" fill="#FFCC00"/>
<path d="M57.6836 64.5139V65.119L45.5807 59.0675V58.4624L57.6836 64.5139ZM57.6836 66.531V67.1362L45.5807 61.0847V60.4796L57.6836 66.531ZM57.6836 68.5482V69.1533L45.5807 63.1019V62.4967L57.6836 68.5482ZM57.6836 70.5653V71.1705L45.5807 65.119V64.5139L57.6836 70.5653Z" fill="#E5E5E5"/>
<path opacity="0.5" d="M78.8633 59.0684V60.0769L76.8461 61.0855V60.0769L78.8633 59.0684Z" fill="#2D3134"/>
<path opacity="0.5" d="M76.8461 61.4892L78.8633 60.4806V60.0771L76.8461 61.0857V61.4892Z" fill="white"/>
<path d="M50.6233 50.1924C50.825 49.9907 51.0267 49.9907 51.2284 50.1924L58.8936 58.8662C59.0954 59.0679 59.0954 59.2696 58.8936 59.4713C58.6919 59.6731 58.4902 59.6731 58.2885 59.4713L56.2713 57.0508V59.0679H55.6662V56.4456L50.6233 50.5959C50.4216 50.5959 50.4216 50.1924 50.6233 50.1924ZM43.3616 46.1581C43.5633 45.9564 43.765 45.9564 43.9667 46.1581L51.6319 54.8319C51.8336 55.0336 51.8336 55.2353 51.6319 55.437C51.4302 55.6388 51.2285 55.6388 51.0267 55.437L49.2113 53.4199V55.6388H48.6061V52.8147L43.3616 46.7633C43.1598 46.5616 43.1598 46.3598 43.3616 46.1581Z" fill="#2D3134"/>
<path d="M41.5469 64.5139L37.5126 62.4967V58.4624L39.5297 59.471C40.74 60.0761 41.5469 61.2864 41.5469 62.6984V64.5139Z" fill="white"/>
<path opacity="0.3" d="M40.797 60.9733C41.3596 61.6645 41.4655 62.5099 41.0335 62.8615C40.6015 63.2131 39.7952 62.9379 39.2326 62.2467C38.67 61.5555 38.5641 60.7101 38.9961 60.3584C39.4281 60.0068 40.2344 60.2821 40.797 60.9733Z" fill="#2D3134"/>
<path opacity="0.3" d="M39.7872 60.9733C40.3498 61.6645 40.4557 62.5099 40.0237 62.8615C39.5917 63.2131 38.7854 62.9379 38.2228 62.2467C37.6602 61.5555 37.5543 60.7101 37.9863 60.3584C38.4183 60.0068 39.2246 60.2821 39.7872 60.9733Z" fill="#2D3134"/>
<path opacity="0.3" d="M41.5469 64.5139L37.5126 62.4967V58.4624L41.5469 64.5139Z" fill="white"/>
<path d="M65.752 76.617L61.7176 74.5999V72.7844C61.7176 71.7758 62.7262 71.1707 63.7348 71.5741L65.752 72.5827V76.617Z" fill="white"/>
<path opacity="0.3" d="M63.9923 73.0734C64.5549 73.7646 64.6608 74.61 64.2288 74.9616C63.7968 75.3132 62.9905 75.038 62.4279 74.3468C61.8653 73.6556 61.7594 72.8102 62.1914 72.4585C62.6234 72.1069 63.4297 72.3822 63.9923 73.0734Z" fill="#2D3134"/>
<path opacity="0.3" d="M65.0011 73.0734C65.5637 73.7646 65.6696 74.61 65.2376 74.9616C64.8056 75.3132 63.9993 75.038 63.4367 74.3468C62.8741 73.6556 62.7682 72.8102 63.2002 72.4585C63.6322 72.1069 64.4385 72.3822 65.0011 73.0734Z" fill="#2D3134"/>
<path opacity="0.3" d="M65.752 76.6168L61.7176 74.5997L65.752 72.5825V76.6168Z" fill="white"/>
<path opacity="0.06" d="M69.7867 52.4113L81.8896 46.3599V69.1537C81.8896 69.7589 81.0828 70.1623 80.4776 69.7589C78.0571 67.7417 73.821 69.1537 70.7953 72.7846C70.1902 73.3897 69.7867 73.9949 69.585 74.8017L69.7867 74.6V78.6343L65.7524 80.6515V64.5143L69.7867 52.4113Z" fill="black"/>
<path opacity="0.39" d="M41.546 38.2905L69.7861 52.4106L65.7518 64.5135V80.6508L37.5117 66.5307V50.3935L41.546 38.2905Z" fill="black"/>
</g>
<defs>
<filter id="filter0_d_406_716" x="0" y="0" width="166.143" height="124" filterUnits="userSpaceOnUse" color-interpolation-filters="sRGB">
<feFlood flood-opacity="0" result="BackgroundImageFix"/>
<feColorMatrix in="SourceAlpha" type="matrix" values="0 0 0 0 0 0 0 0 0 0 0 0 0 0 0 0 0 0 127 0" result="hardAlpha"/>
<feOffset dx="5" dy="5"/>
<feGaussianBlur stdDeviation="4.5"/>
<feComposite in2="hardAlpha" operator="out"/>
<feColorMatrix type="matrix" values="0 0 0 0 0.737255 0 0 0 0 0.737255 0 0 0 0 0.737255 0 0 0 0.25 0"/>
<feBlend mode="normal" in2="BackgroundImageFix" result="effect1_dropShadow_406_716"/>
<feBlend mode="normal" in="SourceGraphic" in2="effect1_dropShadow_406_716" result="shape"/>
</filter>
</defs>
</svg>
