<svg width="119" height="113" viewBox="0 0 119 113" fill="none" xmlns="http://www.w3.org/2000/svg">
<g filter="url(#filter0_d_406_593)">
<path d="M99.355 62.9022V72.2284L93.2193 69.0379V59.957L99.355 62.9022Z" fill="#2D3134"/>
<path opacity="0.39" d="M99.355 62.9022V72.2284L93.2193 69.0379V59.957L99.355 62.9022Z" fill="black"/>
<path d="M48.0607 82.2898C49.7787 81.3081 51.4967 81.3081 52.7238 81.799L56.1598 83.517C57.6324 84.0078 58.3687 85.4804 58.3687 87.4438C58.3687 91.1253 55.1781 95.7884 51.4967 97.7518C49.5332 98.7335 47.8152 98.7335 46.5881 98.2427C46.5881 98.2427 43.1521 96.5247 42.9067 96.2792C41.6795 95.543 41.1887 94.3158 41.1887 92.5978C41.1887 88.671 44.3792 84.0078 48.0607 82.2898Z" fill="#2D3134"/>
<path opacity="0.39" d="M46.5884 98.0001C46.0975 97.7546 43.1524 96.2821 42.907 96.2821C41.6798 95.5458 41.189 94.3186 41.189 92.6006C41.189 91.1281 41.6798 89.4101 42.4161 87.9375L45.8521 89.6555C45.1158 91.1281 44.625 92.8461 44.625 94.3186C44.625 96.0366 45.3612 97.5092 46.5884 98.0001Z" fill="black"/>
<path d="M46.3429 93.3359C46.3429 96.281 48.5518 97.2628 51.4969 95.7902C54.442 94.3176 56.6509 90.8816 56.6509 87.9365C56.6509 84.9914 54.442 84.0096 51.4969 85.4822C48.5518 86.9548 46.3429 90.3908 46.3429 93.3359Z" fill="#999999"/>
<path opacity="0.15" d="M51.006 95.7905C53.9512 94.318 56.16 90.882 56.16 87.9368C56.16 86.4643 55.6692 85.4826 54.6875 84.9917C55.9146 85.2371 56.6509 86.4643 56.6509 87.9368C56.6509 90.882 54.442 94.318 51.4969 95.7905C50.0243 96.5268 48.7972 96.5268 47.8155 96.036C48.7972 96.5268 49.7789 96.2814 51.006 95.7905Z" fill="black"/>
<path d="M48.7967 91.619C48.7967 92.8462 49.7784 93.337 51.0055 92.6007C52.2326 91.8644 53.2144 90.6373 53.2144 89.4102C53.2144 88.183 52.2326 87.6922 51.0055 88.4285C49.7784 89.1647 48.7967 90.3919 48.7967 91.619Z" fill="#2D3134"/>
<path opacity="0.39" d="M48.7967 91.619C48.7967 92.8462 49.7784 93.337 51.0055 92.6007C52.2326 91.8644 53.2144 90.6373 53.2144 89.4102C53.2144 88.183 52.2326 87.6922 51.0055 88.4285C49.7784 89.1647 48.7967 90.3919 48.7967 91.619Z" fill="black"/>
<path d="M49.2879 91.8661C49.2879 93.0932 50.2696 93.5841 51.4967 92.8478C52.7239 92.357 53.7056 90.8844 53.7056 89.6572C53.7056 88.4301 52.7239 87.9392 51.4967 88.6755C50.2696 89.1664 49.2879 90.639 49.2879 91.8661Z" fill="#2D3134"/>
<path opacity="0.06" d="M44.6247 94.3174C44.6247 97.9988 47.8152 99.7168 51.4967 97.7534C55.1781 95.79 58.3687 91.1268 58.3687 87.4454C58.3687 83.764 55.1781 82.046 51.4967 84.0094C47.8152 85.7274 44.6247 90.3906 44.6247 94.3174Z" fill="black"/>
<path d="M88.5563 61.9217C90.2743 60.94 91.9923 60.94 93.2194 61.4308L96.6554 63.1488C97.8825 63.6397 98.8643 65.1122 98.8643 67.0757C98.8643 70.7571 95.6737 75.4202 91.9923 77.3837C90.0288 78.3654 88.3108 78.3654 87.0837 77.8745C87.0837 77.8745 83.6477 76.1565 83.4023 75.9111C82.1751 75.1748 81.6843 73.9477 81.6843 72.2297C81.6843 68.5482 84.8749 63.8851 88.5563 61.9217Z" fill="#2D3134"/>
<path opacity="0.39" d="M87.0835 77.876C86.5926 77.6306 83.6475 76.158 83.4021 76.158C82.1749 75.4217 81.6841 74.1946 81.6841 72.4766C81.6841 71.004 82.1749 69.286 82.9112 67.8135L86.3472 69.5315C85.6109 71.004 85.1201 72.722 85.1201 74.1946C85.1201 75.9126 85.8564 77.1397 87.0835 77.876Z" fill="black"/>
<path d="M86.8385 73.2114C86.8385 76.1565 89.0474 77.1383 91.9925 75.6657C94.9376 74.1931 97.1465 70.7571 97.1465 67.812C97.1465 64.8668 94.9376 63.8851 91.9925 65.3577C89.0474 66.8303 86.8385 70.2663 86.8385 73.2114Z" fill="#999999"/>
<path opacity="0.15" d="M91.5016 75.419C94.4468 73.9464 96.6556 70.5104 96.6556 67.5653C96.6556 66.0927 96.1648 65.111 95.1831 64.6201C96.4102 64.8655 97.1465 66.0927 97.1465 67.5653C97.1465 70.5104 94.9376 73.9464 91.9925 75.419C90.5199 76.1552 89.2928 76.1552 88.3111 75.6644C89.2928 76.1552 90.2745 76.1552 91.5016 75.419Z" fill="black"/>
<path d="M89.2927 71.4935C89.2927 72.7207 90.2745 73.2115 91.5016 72.4752C92.7287 71.9844 93.7104 70.5118 93.7104 69.2847C93.7104 68.0575 92.7287 67.5667 91.5016 68.303C90.2745 68.7938 89.2927 70.2664 89.2927 71.4935Z" fill="#2D3134"/>
<path opacity="0.39" d="M89.2927 71.4935C89.2927 72.7207 90.2745 73.2115 91.5016 72.4752C92.7287 71.9844 93.7104 70.5118 93.7104 69.2847C93.7104 68.0575 92.7287 67.5667 91.5016 68.303C90.2745 68.7938 89.2927 70.2664 89.2927 71.4935Z" fill="black"/>
<path d="M89.7835 71.4935C89.7835 72.7207 90.7652 73.2115 91.9923 72.4752C93.2195 71.739 94.2012 70.5118 94.2012 69.2847C94.2012 68.0575 93.2195 67.5667 91.9923 68.303C90.7652 69.0393 89.7835 70.5118 89.7835 71.4935Z" fill="#2D3134"/>
<path opacity="0.06" d="M85.1203 73.9468C85.1203 77.6282 88.3108 79.3462 91.9923 77.3828C95.6737 75.4194 98.8643 70.7562 98.8643 67.0748C98.8643 63.3934 95.6737 61.6754 91.9923 63.6388C88.3108 65.6022 85.1203 70.2654 85.1203 73.9468Z" fill="black"/>
<path d="M70.6401 4L105 21.18V58.7305L60.8229 80.819L26.463 62.9028V26.0885L70.6401 4Z" fill="#5671EE"/>
<path d="M105 55.5415V60.4501L60.8229 82.5386V77.63L105 55.5415ZM26.463 60.4501V65.3586L60.8229 82.5386V77.63L26.463 60.4501Z" fill="#2D3134"/>
<path opacity="0.06" d="M105 21.1807V60.4492L60.8229 82.5377V43.2692L105 21.1807Z" fill="black"/>
<path opacity="0.39" d="M26.4628 26.0884V65.3569L60.8228 82.5368V43.2683L26.4628 26.0884Z" fill="black"/>
<path d="M9.28302 45.7227L24.0087 38.3599L58.3687 55.5398V83.2732C58.3687 84.0095 57.3869 84.5004 56.6507 84.0095C53.7055 81.5552 48.5515 83.2732 44.8701 87.6909C42.6612 90.3906 41.6795 93.3358 41.6795 95.7901L38.7344 97.2626L4.37445 80.0827V60.4484L9.28302 45.7227Z" fill="#E5E5E5"/>
<path d="M37.7529 76.4019L41.9252 64.1305C42.1706 63.6396 41.9252 63.3942 41.4343 63.1488L10.7558 47.9322C10.265 47.6868 9.77412 47.9322 9.52869 48.4231L5.60184 59.9582C5.35641 60.4491 5.60184 60.6945 6.0927 60.9399L36.5258 76.8927C37.0166 77.1382 37.7529 76.8927 37.7529 76.4019Z" fill="#3399CC"/>
<path opacity="0.15" d="M32.1079 58.4856L11.0011 47.9322C10.5102 47.6868 10.0194 47.9322 9.77395 48.4231L6.09253 59.2219L32.1079 58.4856Z" fill="black"/>
<path d="M5.84713 59.9565L6.09257 59.2202C6.09257 59.7111 6.09257 59.9565 6.58343 60.2019L37.0165 76.1548C37.5074 76.4002 37.9982 76.1548 38.2437 75.6639L37.9982 76.4002C37.7528 76.891 37.2619 77.1365 36.7711 76.891L6.33799 60.9382C5.84714 60.6928 5.60171 60.4474 5.84713 59.9565Z" fill="#2D3134"/>
<path d="M30.1445 75.173L12.9646 66.583V80.8178L30.1445 89.4078V75.173Z" fill="white"/>
<path d="M28.917 87.4458L14.1913 80.083V68.5479L28.917 75.9107V87.4458Z" fill="#2D3134"/>
<path d="M4.37456 80.0824V75.1738L38.7345 92.3538V97.2624L4.37456 80.0824ZM43.6431 94.8081L38.7345 97.2624V92.3538L43.6431 89.8995V94.8081Z" fill="#2D3134"/>
<path d="M28.917 87.4478V89.9021L14.1913 82.5392V80.085L28.917 87.4478Z" fill="white"/>
<path d="M44.8701 63.6403L54.1963 58.9771C54.4418 58.7317 54.9326 58.9771 54.9326 59.468V66.8308C54.9326 67.3217 54.6872 67.8126 54.1963 67.8126L51.0058 69.5306C50.7603 69.776 50.5149 69.776 50.2695 70.0214L47.0789 73.9483H46.8335L41.4341 76.648C41.1886 76.8934 40.6978 76.4025 40.9432 76.1571L45.1155 63.8857C44.6246 63.8857 44.6246 63.6403 44.8701 63.6403Z" fill="#3399CC"/>
<path opacity="0.15" d="M40.4522 75.9117L45.3607 73.4574H45.6062L48.7967 69.5306C49.0422 69.2851 49.2876 69.0397 49.533 69.0397L52.7236 67.3217C53.2144 67.0763 53.4599 66.8308 53.4599 66.34V59.2226L53.9507 58.9771C54.1962 58.7317 54.687 58.9771 54.687 59.468V66.8308C54.687 67.3217 54.4416 67.8126 53.9507 67.8126L50.7602 69.5306C50.5147 69.776 50.2693 69.776 50.0239 70.0214L46.8333 73.9483H46.5879L41.1885 76.648C40.6976 76.8934 40.4522 76.648 40.4522 75.9117Z" fill="black"/>
<path d="M38.7343 87.4474V92.356L39.9614 91.8651V86.9565L38.7343 87.4474Z" fill="#FFCC00"/>
<path d="M28.917 77.629V78.3652L14.1913 71.0024V70.2661L28.917 77.629ZM28.917 80.0832V80.8195L14.1913 73.4567V72.7204L28.917 80.0832ZM28.917 82.5375V83.2738L14.1913 75.911V75.1747L28.917 82.5375ZM28.917 84.9918V85.7281L14.1913 78.3652V77.629L28.917 84.9918Z" fill="#E5E5E5"/>
<path opacity="0.5" d="M54.687 71.002V72.2291L52.2327 73.4562V72.2291L54.687 71.002Z" fill="#2D3134"/>
<path opacity="0.5" d="M52.2327 73.946L54.687 72.7189V72.228L52.2327 73.4552V73.946Z" fill="white"/>
<path d="M20.3271 60.2035C20.5725 59.958 20.818 59.958 21.0634 60.2035L30.3897 70.7569C30.6351 71.0023 30.6351 71.2477 30.3897 71.4932C30.1442 71.7386 29.8988 71.7386 29.6534 71.4932L27.1991 68.548V71.0023H26.4628V67.8117L20.3271 60.6943C20.0817 60.6943 20.0817 60.2035 20.3271 60.2035ZM11.4917 55.2949C11.7371 55.0495 11.9826 55.0495 12.228 55.2949L21.5542 65.8483C21.7997 66.0938 21.7997 66.3392 21.5542 66.5846C21.3088 66.83 21.0634 66.83 20.818 66.5846L18.6091 64.1303V66.83H17.8728V63.394L11.4917 56.0312C11.2463 55.7858 11.2463 55.5403 11.4917 55.2949Z" fill="#2D3134"/>
<path d="M9.2832 77.629L4.37464 75.1747V70.2661L6.82892 71.4933C8.30149 72.2295 9.2832 73.7021 9.2832 75.4201V77.629Z" fill="white"/>
<path opacity="0.3" d="M8.37044 73.3211C9.05497 74.1621 9.18379 75.1907 8.65817 75.6185C8.13255 76.0463 7.15152 75.7114 6.46699 74.8704C5.78246 74.0294 5.65364 73.0008 6.17926 72.573C6.70489 72.1452 7.68591 72.4801 8.37044 73.3211Z" fill="#2D3134"/>
<path opacity="0.3" d="M7.1429 73.3211C7.82743 74.1621 7.95625 75.1907 7.43063 75.6185C6.90501 76.0463 5.92399 75.7114 5.23945 74.8704C4.55492 74.0294 4.4261 73.0008 4.95172 72.573C5.47735 72.1452 6.45837 72.4801 7.1429 73.3211Z" fill="#2D3134"/>
<path opacity="0.3" d="M9.2832 77.629L4.37464 75.1747V70.2661L9.2832 77.629Z" fill="white"/>
<path d="M38.7344 92.3544L33.8258 89.9001V87.6913C33.8258 86.4641 35.053 85.7278 36.2801 86.2187L38.7344 87.4458V92.3544Z" fill="white"/>
<path opacity="0.3" d="M36.5931 88.0433C37.2776 88.8843 37.4065 89.9128 36.8808 90.3407C36.3552 90.7685 35.3742 90.4336 34.6897 89.5926C34.0051 88.7516 33.8763 87.723 34.4019 87.2952C34.9275 86.8673 35.9086 87.2023 36.5931 88.0433Z" fill="#2D3134"/>
<path opacity="0.3" d="M37.8206 88.0433C38.5052 88.8843 38.634 89.9128 38.1084 90.3407C37.5827 90.7685 36.6017 90.4336 35.9172 89.5926C35.2327 88.7516 35.1038 87.723 35.6295 87.2952C36.1551 86.8673 37.1361 87.2023 37.8206 88.0433Z" fill="#2D3134"/>
<path opacity="0.3" d="M38.7344 92.3539L33.8258 89.8996L38.7344 87.4453V92.3539Z" fill="white"/>
<path opacity="0.06" d="M43.643 62.9043L58.3687 55.5415V83.2749C58.3687 84.0112 57.3869 84.502 56.6507 84.0112C53.7055 81.5569 48.5515 83.2749 44.8701 87.6926C44.1338 88.4289 43.643 89.1652 43.3975 90.1469L43.643 89.9014V94.81L38.7344 97.2643V77.63L43.643 62.9043Z" fill="black"/>
<path opacity="0.39" d="M9.28312 45.7236L43.6431 62.9036L38.7345 77.6293V97.2635L4.37456 80.0836V60.4493L9.28312 45.7236Z" fill="black"/>
</g>
<defs>
<filter id="filter0_d_406_593" x="0.374512" y="0" width="118.625" height="112.575" filterUnits="userSpaceOnUse" color-interpolation-filters="sRGB">
<feFlood flood-opacity="0" result="BackgroundImageFix"/>
<feColorMatrix in="SourceAlpha" type="matrix" values="0 0 0 0 0 0 0 0 0 0 0 0 0 0 0 0 0 0 127 0" result="hardAlpha"/>
<feOffset dx="5" dy="5"/>
<feGaussianBlur stdDeviation="4.5"/>
<feColorMatrix type="matrix" values="0 0 0 0 0.739062 0 0 0 0 0.739062 0 0 0 0 0.739062 0 0 0 0.25 0"/>
<feBlend mode="normal" in2="BackgroundImageFix" result="effect1_dropShadow_406_593"/>
<feBlend mode="normal" in="SourceGraphic" in2="effect1_dropShadow_406_593" result="shape"/>
</filter>
</defs>
</svg>
