<svg width="167" height="124" viewBox="0 0 167 124" fill="none" xmlns="http://www.w3.org/2000/svg">
<g filter="url(#filter0_d_406_795)">
<path d="M78.5 35.3564L92.2359 42.3408L35.6625 70.5111C34.0328 71.2096 34.0328 73.5377 35.6625 74.2361L77.8016 95.1893C78.5 95.4221 79.1984 95.4221 79.6641 95.1893L139.264 65.6221L153 72.6064L78.5 109.856L4 72.6064L78.5 35.3564Z" fill="#999999"/>
<path d="M118.88 65.2415V72.7724L113.925 70.196V62.8633L118.88 65.2415Z" fill="#2D3134"/>
<path opacity="0.39" d="M118.88 65.2415V72.7724L113.925 70.196V62.8633L118.88 65.2415Z" fill="black"/>
<path d="M77.4605 80.8974C78.8478 80.1047 80.2351 80.1047 81.226 80.5011L84.0005 81.8884C85.1896 82.2847 85.7842 83.4738 85.7842 85.0593C85.7842 88.032 83.2078 91.7975 80.2351 93.3829C78.6496 94.1756 77.2623 94.1756 76.2714 93.7793C76.2714 93.7793 73.4969 92.392 73.2987 92.1938C72.3078 91.5993 71.9114 90.6084 71.9114 89.2211C71.9114 86.0502 74.4878 82.2847 77.4605 80.8974Z" fill="#2D3134"/>
<path opacity="0.39" d="M76.2715 93.5835C75.8751 93.3853 73.4969 92.1962 73.2988 92.1962C72.3078 91.6017 71.9115 90.6107 71.9115 89.2235C71.9115 88.0344 72.3078 86.6471 72.9024 85.458L75.6769 86.8453C75.0824 88.0344 74.686 89.4216 74.686 90.6107C74.686 91.998 75.2806 93.1871 76.2715 93.5835Z" fill="black"/>
<path d="M76.0728 89.8168C76.0728 92.195 77.8565 92.9878 80.2347 91.7987C82.6128 90.6096 84.3965 87.835 84.3965 85.4568C84.3965 83.0787 82.6128 82.2859 80.2347 83.475C77.8565 84.6641 76.0728 87.4387 76.0728 89.8168Z" fill="#999999"/>
<path opacity="0.15" d="M79.8383 91.7977C82.2165 90.6086 84.0001 87.834 84.0001 85.4558C84.0001 84.2667 83.6038 83.474 82.811 83.0776C83.8019 83.2758 84.3965 84.2667 84.3965 85.4558C84.3965 87.834 82.6128 90.6086 80.2347 91.7977C79.0456 92.3922 78.0547 92.3922 77.2619 91.9958C78.0547 92.3922 78.8474 92.194 79.8383 91.7977Z" fill="black"/>
<path d="M78.0548 88.4294C78.0548 89.4204 78.8475 89.8167 79.8384 89.2222C80.8293 88.6276 81.6221 87.6367 81.6221 86.6458C81.6221 85.6549 80.8293 85.2585 79.8384 85.8531C78.8475 86.4476 78.0548 87.4385 78.0548 88.4294Z" fill="#2D3134"/>
<path opacity="0.39" d="M78.0548 88.4294C78.0548 89.4204 78.8475 89.8167 79.8384 89.2222C80.8293 88.6276 81.6221 87.6367 81.6221 86.6458C81.6221 85.6549 80.8293 85.2585 79.8384 85.8531C78.8475 86.4476 78.0548 87.4385 78.0548 88.4294Z" fill="black"/>
<path d="M78.4513 88.6296C78.4513 89.6205 79.244 90.0169 80.2349 89.4224C81.2258 89.026 82.0186 87.8369 82.0186 86.846C82.0186 85.8551 81.2258 85.4587 80.2349 86.0533C79.244 86.4496 78.4513 87.6387 78.4513 88.6296Z" fill="#2D3134"/>
<path opacity="0.06" d="M74.686 90.6105C74.686 93.5832 77.2623 94.9705 80.2351 93.385C83.2078 91.7996 85.7842 88.0341 85.7842 85.0614C85.7842 82.0887 83.2078 80.7014 80.2351 82.2868C77.2623 83.6741 74.686 87.4396 74.686 90.6105Z" fill="black"/>
<path d="M110.16 64.4502C111.547 63.6574 112.934 63.6574 113.925 64.0538L116.7 65.4411C117.691 65.8375 118.483 67.0265 118.483 68.612C118.483 71.5847 115.907 75.3502 112.934 76.9357C111.349 77.7284 109.962 77.7284 108.971 77.332C108.971 77.332 106.196 75.9447 105.998 75.7466C105.007 75.152 104.611 74.1611 104.611 72.7738C104.611 69.8011 107.187 66.0356 110.16 64.4502Z" fill="#2D3134"/>
<path opacity="0.39" d="M108.971 77.3325C108.574 77.1343 106.196 75.9452 105.998 75.9452C105.007 75.3507 104.611 74.3598 104.611 72.9725C104.611 71.7834 105.007 70.3961 105.602 69.207L108.376 70.5943C107.782 71.7834 107.385 73.1707 107.385 74.3598C107.385 75.747 107.98 76.738 108.971 77.3325Z" fill="black"/>
<path d="M108.773 73.5659C108.773 75.9441 110.557 76.7368 112.935 75.5477C115.313 74.3586 117.097 71.584 117.097 69.2059C117.097 66.8277 115.313 66.0349 112.935 67.224C110.557 68.4131 108.773 71.1877 108.773 73.5659Z" fill="#999999"/>
<path opacity="0.15" d="M112.538 75.3494C114.917 74.1603 116.7 71.3858 116.7 69.0076C116.7 67.8185 116.304 67.0258 115.511 66.6294C116.502 66.8276 117.097 67.8185 117.097 69.0076C117.097 71.3858 115.313 74.1603 112.935 75.3494C111.746 75.944 110.755 75.944 109.962 75.5476C110.755 75.944 111.548 75.944 112.538 75.3494Z" fill="black"/>
<path d="M110.755 72.179C110.755 73.1699 111.548 73.5662 112.539 72.9717C113.53 72.5753 114.322 71.3862 114.322 70.3953C114.322 69.4044 113.53 69.008 112.539 69.6026C111.548 69.999 110.755 71.188 110.755 72.179Z" fill="#2D3134"/>
<path opacity="0.39" d="M110.755 72.179C110.755 73.1699 111.548 73.5662 112.539 72.9717C113.53 72.5753 114.322 71.3862 114.322 70.3953C114.322 69.4044 113.53 69.008 112.539 69.6026C111.548 69.999 110.755 71.188 110.755 72.179Z" fill="black"/>
<path d="M111.151 72.179C111.151 73.1699 111.944 73.5662 112.935 72.9717C113.926 72.3771 114.719 71.3862 114.719 70.3953C114.719 69.4044 113.926 69.008 112.935 69.6026C111.944 70.1971 111.151 71.3862 111.151 72.179Z" fill="#2D3134"/>
<path opacity="0.06" d="M107.385 74.1598C107.385 77.1325 109.962 78.5198 112.934 76.9344C115.907 75.3489 118.483 71.5834 118.483 68.6107C118.483 65.638 115.907 64.2507 112.934 65.8362C109.962 67.4216 107.385 71.1871 107.385 74.1598Z" fill="black"/>
<path d="M95.693 17.6787L123.438 31.5515V61.8733L87.7657 79.7097L60.0202 65.2424V35.5151L95.693 17.6787Z" fill="#5671EE"/>
<path d="M123.438 59.2979V63.2615L87.7657 81.0979V77.1342L123.438 59.2979ZM60.0202 63.2615V67.2251L87.7657 81.0979V77.1342L60.0202 63.2615Z" fill="#2D3134"/>
<path opacity="0.06" d="M123.438 31.5522V63.2614L87.7657 81.0978V49.3886L123.438 31.5522Z" fill="black"/>
<path opacity="0.39" d="M60.0201 35.5156V67.2248L87.7656 81.0975V49.3884L60.0201 35.5156Z" fill="black"/>
<path d="M46.1477 51.3708L58.0387 45.4253L85.7842 59.298V81.6926C85.7842 82.2872 84.9914 82.6835 84.3969 82.2872C82.0187 80.3054 77.8569 81.6926 74.8842 85.2599C73.1005 87.4399 72.3078 89.8181 72.3078 91.7999L69.9296 92.989L42.1841 79.1163V63.2617L46.1477 51.3708Z" fill="#E5E5E5"/>
<path d="M69.1362 76.1435L72.5053 66.2344C72.7034 65.8381 72.5053 65.6399 72.1089 65.4417L47.3361 53.1544C46.9398 52.9562 46.5434 53.1544 46.3452 53.5508L43.1743 62.8653C42.9761 63.2617 43.1743 63.4599 43.5707 63.6581L68.1453 76.5399C68.5416 76.7381 69.1362 76.5399 69.1362 76.1435Z" fill="#3399CC"/>
<path opacity="0.15" d="M64.5781 61.6762L47.5345 53.1544C47.1381 52.9562 46.7417 53.1544 46.5436 53.5508L43.5708 62.2708L64.5781 61.6762Z" fill="black"/>
<path d="M43.3732 62.8636L43.5713 62.269C43.5713 62.6654 43.5713 62.8636 43.9677 63.0618L68.5423 75.9436C68.9387 76.1418 69.335 75.9436 69.5332 75.5473L69.335 76.1418C69.1368 76.5382 68.7405 76.7363 68.3441 76.5382L43.7695 63.6563C43.3732 63.4581 43.175 63.26 43.3732 62.8636Z" fill="#2D3134"/>
<path d="M62.9932 75.1507L49.1204 68.2144V79.7089L62.9932 86.6453V75.1507Z" fill="white"/>
<path d="M62.002 85.0613L50.111 79.1158V69.8013L62.002 75.7467V85.0613Z" fill="#2D3134"/>
<path d="M42.1834 79.1155V75.1519L69.9289 89.0246V92.9883L42.1834 79.1155ZM73.8926 91.0064L69.9289 92.9883V89.0246L73.8926 87.0428V91.0064Z" fill="#2D3134"/>
<path d="M62.002 85.0617V87.0435L50.111 81.098V79.1162L62.002 85.0617Z" fill="white"/>
<path d="M74.8843 65.8373L82.4152 62.0719C82.6134 61.8737 83.0098 62.0719 83.0098 62.4683V68.4137C83.0098 68.8101 82.8116 69.2064 82.4152 69.2064L79.8388 70.5937C79.6407 70.7919 79.4425 70.7919 79.2443 70.9901L76.6679 74.161H76.4698L72.1097 76.341C71.9116 76.5392 71.5152 76.1428 71.7134 75.9446L75.0825 66.0355C74.6861 66.0355 74.6861 65.8373 74.8843 65.8373Z" fill="#3399CC"/>
<path opacity="0.15" d="M71.317 75.7465L75.2806 73.7646H75.4788L78.0552 70.5937C78.2533 70.3955 78.4515 70.1974 78.6497 70.1974L81.2261 68.8101C81.6224 68.6119 81.8206 68.4137 81.8206 68.0174V62.2701L82.217 62.0719C82.4152 61.8737 82.8115 62.0719 82.8115 62.4683V68.4137C82.8115 68.8101 82.6133 69.2064 82.217 69.2064L79.6406 70.5937C79.4424 70.7919 79.2442 70.7919 79.0461 70.9901L76.4697 74.161H76.2715L71.9115 76.341C71.5151 76.5392 71.317 76.341 71.317 75.7465Z" fill="black"/>
<path d="M69.929 85.0609V89.0246L70.9199 88.6282V84.6646L69.929 85.0609Z" fill="#FFCC00"/>
<path d="M62.002 77.1344V77.729L50.111 71.7835V71.189L62.002 77.1344ZM62.002 79.1163V79.7108L50.111 73.7653V73.1708L62.002 79.1163ZM62.002 81.0981V81.6926L50.111 75.7472V75.1526L62.002 81.0981ZM62.002 83.0799V83.6744L50.111 77.729V77.1344L62.002 83.0799Z" fill="#E5E5E5"/>
<path opacity="0.5" d="M82.8115 71.7817V72.7726L80.8297 73.7636V72.7726L82.8115 71.7817Z" fill="#2D3134"/>
<path opacity="0.5" d="M80.8297 74.1588L82.8115 73.1679V72.7715L80.8297 73.7624V74.1588Z" fill="white"/>
<path d="M55.0657 63.063C55.2639 62.8648 55.4621 62.8648 55.6603 63.063L63.1912 71.5848C63.3894 71.783 63.3894 71.9812 63.1912 72.1793C62.993 72.3775 62.7948 72.3775 62.5967 72.1793L60.6148 69.8012V71.783H60.0203V69.2066L55.0657 63.4593C54.8676 63.4593 54.8676 63.063 55.0657 63.063ZM47.9312 59.0993C48.1294 58.9011 48.3275 58.9011 48.5257 59.0993L56.0567 67.6212C56.2548 67.8193 56.2548 68.0175 56.0567 68.2157C55.8585 68.4139 55.6603 68.4139 55.4621 68.2157L53.6785 66.2339V68.4139H53.0839V65.6393L47.9312 59.6939C47.733 59.4957 47.733 59.2975 47.9312 59.0993Z" fill="#2D3134"/>
<path d="M46.1475 77.1344L42.1838 75.1526V71.189L44.1656 72.1799C45.3547 72.7744 46.1475 73.9635 46.1475 75.3508V77.1344Z" fill="white"/>
<path opacity="0.3" d="M45.4109 73.6548C45.9637 74.3339 46.0677 75.1645 45.6433 75.51C45.2188 75.8554 44.4267 75.585 43.8739 74.9059C43.3211 74.2268 43.2171 73.3962 43.6416 73.0507C44.066 72.7053 44.8582 72.9757 45.4109 73.6548Z" fill="#2D3134"/>
<path opacity="0.3" d="M44.4197 73.6548C44.9725 74.3339 45.0765 75.1645 44.6521 75.51C44.2276 75.8554 43.4354 75.585 42.8827 74.9059C42.3299 74.2268 42.2259 73.3962 42.6503 73.0507C43.0748 72.7053 43.867 72.9757 44.4197 73.6548Z" fill="#2D3134"/>
<path opacity="0.3" d="M46.1475 77.1344L42.1838 75.1526V71.189L46.1475 77.1344Z" fill="white"/>
<path d="M69.9297 89.025L65.966 87.0432V85.2595C65.966 84.2686 66.957 83.6741 67.9479 84.0704L69.9297 85.0614V89.025Z" fill="white"/>
<path opacity="0.3" d="M68.2 85.544C68.7527 86.2231 68.8568 87.0537 68.4323 87.3991C68.0079 87.7446 67.2157 87.4742 66.663 86.7951C66.1102 86.116 66.0062 85.2854 66.4306 84.9399C66.8551 84.5944 67.6472 84.8649 68.2 85.544Z" fill="#2D3134"/>
<path opacity="0.3" d="M69.1912 85.544C69.744 86.2231 69.848 87.0537 69.4235 87.3991C68.9991 87.7446 68.2069 87.4742 67.6542 86.7951C67.1014 86.116 66.9974 85.2854 67.4218 84.9399C67.8463 84.5944 68.6384 84.8649 69.1912 85.544Z" fill="#2D3134"/>
<path opacity="0.3" d="M69.9297 89.0252L65.966 87.0433L69.9297 85.0615V89.0252Z" fill="white"/>
<path opacity="0.06" d="M73.8932 65.2433L85.7842 59.2979V81.6924C85.7842 82.287 84.9914 82.6833 84.3969 82.287C82.0187 80.3052 77.8569 81.6924 74.8842 85.2597C74.2896 85.8543 73.8932 86.4488 73.6951 87.2415L73.8932 87.0434V91.007L69.9296 92.9888V77.1342L73.8932 65.2433Z" fill="black"/>
<path opacity="0.39" d="M46.1471 51.3711L73.8926 65.2438L69.9289 77.1348V92.9893L42.1834 79.1166V63.262L46.1471 51.3711Z" fill="black"/>
<path d="M36.833 63.8931L41.8884 61.5741V10.5571L36.833 12.8761V63.8931Z" fill="#CACACA"/>
<path d="M33.042 61.4474L37.9033 63.6141V11.6116L33.042 9.44482V61.4474ZM105.962 93.9489L110.5 95.9995L110.824 26.779H105.962V93.9489Z" fill="white"/>
<path d="M121.432 85.1144L126.482 87.1268V22.7285H121.432V85.1144Z" fill="white"/>
<path d="M33.042 9.4248L111.925 26.7632L110.067 36.6187L70.9234 23.3603L33.042 11.5921V9.4248Z" fill="white"/>
<path d="M110.5 95.999L113 94.499L115 93.0056L114.444 29.999L110 31.5221L110.5 95.999Z" fill="white"/>
<path d="M126.482 87.3793L130.271 84.5V21.4668L126.482 23.3524V87.3793Z" fill="white"/>
</g>
<path d="M33 9.5L70.0769 22L89.3692 28.5L99.0154 31.5L107.138 34L130.5 21.5L109.038 14.0911L84.0008 6.40506L63.0715 0L33 9.5Z" fill="#A7A7A7"/>
<defs>
<filter id="filter0_d_406_795" x="0" y="5.4248" width="167" height="118.432" filterUnits="userSpaceOnUse" color-interpolation-filters="sRGB">
<feFlood flood-opacity="0" result="BackgroundImageFix"/>
<feColorMatrix in="SourceAlpha" type="matrix" values="0 0 0 0 0 0 0 0 0 0 0 0 0 0 0 0 0 0 127 0" result="hardAlpha"/>
<feOffset dx="5" dy="5"/>
<feGaussianBlur stdDeviation="4.5"/>
<feComposite in2="hardAlpha" operator="out"/>
<feColorMatrix type="matrix" values="0 0 0 0 0.737255 0 0 0 0 0.737255 0 0 0 0 0.737255 0 0 0 0.25 0"/>
<feBlend mode="normal" in2="BackgroundImageFix" result="effect1_dropShadow_406_795"/>
<feBlend mode="normal" in="SourceGraphic" in2="effect1_dropShadow_406_795" result="shape"/>
</filter>
</defs>
</svg>
