<svg width="196" height="120" viewBox="0 0 196 120" fill="none" xmlns="http://www.w3.org/2000/svg">
<g filter="url(#filter0_d_406_646)">
<path d="M92.8227 17.1758L4 61.5871L12.3271 65.7507L101.15 21.3393L92.8227 17.1758ZM173.318 57.4236L84.4956 101.835L92.8227 105.999L181.645 61.5871L173.318 57.4236Z" fill="#999999"/>
<path d="M101.15 21.3384L12.3271 65.7497L84.4956 101.834L173.457 57.4226L101.15 21.3384Z" fill="#656565"/>
<path d="M92.8227 17.1758L4 61.5871L12.3271 65.7507L101.15 21.3393L92.8227 17.1758ZM173.318 57.4236L84.4956 101.835L92.8227 105.999L181.645 61.5871L173.318 57.4236Z" fill="#999999"/>
<path d="M101.15 21.3384L12.3271 65.7497L84.4956 101.834L173.457 57.4226L101.15 21.3384Z" fill="#656565"/>
<path opacity="0.15" d="M171.792 56.7287L83.1078 101.14L84.4956 101.834L173.318 57.4226L171.792 56.7287ZM101.15 21.3384L12.3271 65.7497L13.8538 66.4437L102.538 22.0323L101.15 21.3384Z" fill="black"/>
<path d="M126.825 45.349L137.928 39.7976L136.401 38.9648L125.298 44.5163L126.825 45.349ZM114.196 50.0677L103.093 55.6191L104.619 56.4518L115.722 50.9004L114.196 50.0677Z" fill="#E5E5E5"/>
<path d="M84.4958 96.2838L81.7201 94.8959L115.029 78.2416L117.804 79.6295L84.4958 96.2838ZM76.1687 92.1202L73.393 90.7323L106.701 74.0781L109.477 75.4659L76.1687 92.1202ZM67.8415 87.9566L65.0658 86.5688L98.3744 69.9145L101.15 71.3024L67.8415 87.9566ZM59.5144 83.7931L56.7387 82.4052L90.0472 65.7509L92.8229 67.1388L59.5144 83.7931ZM51.1873 79.6295L48.4116 78.2416L81.7201 61.5874L84.4958 62.9752L51.1873 79.6295ZM42.8601 75.4659L40.0844 74.0781L73.393 57.4238L76.1687 58.8117L42.8601 75.4659ZM34.533 71.3024L31.7573 69.9145L65.0658 53.2602L67.8415 54.6481L34.533 71.3024ZM26.2059 67.1388L23.4302 65.7509L56.7387 49.0967L59.5144 50.4845L26.2059 67.1388Z" fill="#E5E5E5"/>
<path d="M98.4981 71.6416L101.524 74.7355L105.154 85.0487L108.583 92.2679L98.4981 95.3618L88.8164 93.2992L94.4641 76.7982L98.4981 71.6416Z" fill="white"/>
<path d="M98.5024 88.7633C102.282 88.7633 105.448 87.4792 105.639 85.8014L103.86 80.817C103.443 82.0204 101.132 82.8744 98.5024 82.8744C95.8726 82.8744 93.5623 82.0204 93.1448 80.817L91.3674 85.8014C91.5587 87.4792 94.723 88.7633 98.5024 88.7633ZM98.5024 78.1604C100.28 78.1604 101.929 77.61 102.413 76.7545C101.747 74.8854 101.176 73.2803 100.814 72.2698C100.574 71.5946 99.4844 71.2451 98.5024 71.2451C97.5204 71.2451 96.4309 71.5946 96.1905 72.2698L94.5917 76.7545C95.0756 77.61 96.7266 78.1604 98.5024 78.1604ZM112.387 90.3257L106.449 87.9315L107.133 89.8402C107.099 91.8627 103.174 93.4757 98.5024 93.4757C93.8327 93.4757 89.9046 91.8643 89.8714 89.8402L90.5561 87.9315L84.6182 90.3257C82.953 90.9962 82.8819 92.2375 84.4632 93.0835L95.6307 99.0721C97.2089 99.9181 99.7944 99.9181 101.374 99.0721L112.543 93.0835C114.123 92.2375 114.052 90.9962 112.387 90.3257Z" fill="#FF8400"/>
<path d="M153.568 41.0488L156.594 44.1428L160.225 54.4559L163.654 61.6751L153.568 64.7691L143.887 62.7064L149.534 46.2054L153.568 41.0488Z" fill="white"/>
<path d="M153.573 58.1705C157.352 58.1705 160.518 56.8865 160.709 55.2087L158.93 50.2242C158.513 51.4277 156.203 52.2816 153.573 52.2816C150.943 52.2816 148.633 51.4277 148.215 50.2242L146.438 55.2087C146.629 56.8865 149.793 58.1705 153.573 58.1705ZM153.573 47.5676C155.35 47.5676 157 47.0173 157.483 46.1618C156.818 44.2926 156.247 42.6875 155.885 41.6771C155.644 41.0018 154.555 40.6523 153.573 40.6523C152.591 40.6523 151.501 41.0018 151.261 41.6771L149.662 46.1618C150.146 47.0173 151.797 47.5676 153.573 47.5676ZM167.457 59.7329L161.519 57.3387L162.204 59.2474C162.169 61.27 158.244 62.8829 153.573 62.8829C148.903 62.8829 144.975 61.2715 144.942 59.2474L145.626 57.3387L139.688 59.7329C138.023 60.4034 137.952 61.6447 139.534 62.4908L150.701 68.4793C152.279 69.3254 154.865 69.3254 156.444 68.4793L167.614 62.4908C169.193 61.6447 169.122 60.4034 167.457 59.7329Z" fill="#FF8400"/>
<path d="M35.4663 39.6914L38.492 42.7853L42.1226 53.0985L45.5515 60.3177L35.4663 63.4116L25.7847 61.349L31.4323 44.848L35.4663 39.6914Z" fill="white"/>
<path d="M35.4707 56.8131C39.2501 56.8131 42.416 55.529 42.6073 53.8512L40.8283 48.8668C40.4108 50.0702 38.1005 50.9242 35.4707 50.9242C32.8409 50.9242 30.5306 50.0702 30.1131 48.8668L28.3356 53.8512C28.527 55.529 31.6913 56.8131 35.4707 56.8131ZM35.4707 46.2102C37.2481 46.2102 38.8975 45.6599 39.3814 44.8043C38.7156 42.9352 38.1447 41.3301 37.7826 40.3196C37.5422 39.6444 36.4527 39.2949 35.4707 39.2949C34.4887 39.2949 33.3991 39.6444 33.1588 40.3196L31.56 44.8043C32.0439 45.6599 33.6948 46.2102 35.4707 46.2102ZM49.3549 58.3755L43.417 55.9813L44.1017 57.89C44.0669 59.9125 40.142 61.5255 35.4707 61.5255C30.801 61.5255 26.8729 59.9141 26.8397 57.89L27.5244 55.9813L21.5864 58.3755C19.9213 59.046 19.8501 60.2873 21.4315 61.1333L32.599 67.1219C34.1771 67.9679 36.7626 67.9679 38.3424 67.1219L49.5115 61.1333C51.0912 60.2873 51.0201 59.046 49.3549 58.3755Z" fill="#FF8400"/>
<path d="M130.219 55.1339V63.2301L124.892 60.4603V52.5771L130.219 55.1339Z" fill="#2D3134"/>
<path opacity="0.39" d="M130.219 55.1339V63.2301L124.892 60.4603V52.5771L130.219 55.1339Z" fill="black"/>
<path d="M85.6892 71.9643C87.1806 71.1121 88.6721 71.1121 89.7373 71.5382L92.7202 73.0296C93.9985 73.4557 94.6377 74.7341 94.6377 76.4385C94.6377 79.6344 91.8679 83.6825 88.6721 85.387C86.9676 86.2392 85.4762 86.2392 84.4109 85.8131C84.4109 85.8131 81.4281 84.3217 81.215 84.1087C80.1497 83.4695 79.7236 82.4042 79.7236 80.9128C79.7236 77.5038 82.4934 73.4557 85.6892 71.9643Z" fill="#2D3134"/>
<path opacity="0.39" d="M84.4111 85.6026C83.985 85.3895 81.4283 84.1112 81.2153 84.1112C80.15 83.472 79.7238 82.4067 79.7238 80.9153C79.7238 79.6369 80.15 78.1455 80.7891 76.8672L83.772 78.3586C83.1328 79.637 82.7067 81.1284 82.7067 82.4067C82.7067 83.8981 83.3458 85.1765 84.4111 85.6026Z" fill="black"/>
<path d="M84.198 81.5536C84.198 84.1103 86.1156 84.9626 88.6723 83.6842C91.229 82.4059 93.1465 79.423 93.1465 76.8663C93.1465 74.3096 91.229 73.4574 88.6723 74.7358C86.1156 76.0141 84.198 78.9969 84.198 81.5536Z" fill="#999999"/>
<path opacity="0.15" d="M88.2461 83.6832C90.8028 82.4048 92.7204 79.422 92.7204 76.8653C92.7204 75.5869 92.2943 74.7347 91.442 74.3086C92.5073 74.5217 93.1465 75.5869 93.1465 76.8653C93.1465 79.422 91.229 82.4048 88.6723 83.6832C87.3939 84.3224 86.3286 84.3224 85.4764 83.8962C86.3286 84.3224 87.1808 84.1093 88.2461 83.6832Z" fill="black"/>
<path d="M86.3285 80.0623C86.3285 81.1276 87.1808 81.5537 88.246 80.9145C89.3113 80.2753 90.1636 79.21 90.1636 78.1447C90.1636 77.0794 89.3113 76.6533 88.246 77.2925C87.1808 77.9317 86.3285 78.997 86.3285 80.0623Z" fill="#2D3134"/>
<path opacity="0.39" d="M86.3285 80.0623C86.3285 81.1276 87.1808 81.5537 88.246 80.9145C89.3113 80.2753 90.1636 79.21 90.1636 78.1447C90.1636 77.0794 89.3113 76.6533 88.246 77.2925C87.1808 77.9317 86.3285 78.997 86.3285 80.0623Z" fill="black"/>
<path d="M86.7548 80.2766C86.7548 81.3419 87.607 81.768 88.6723 81.1289C89.7376 80.7027 90.5898 79.4244 90.5898 78.3591C90.5898 77.2938 89.7376 76.8677 88.6723 77.5069C87.607 77.933 86.7548 79.2113 86.7548 80.2766Z" fill="#2D3134"/>
<path opacity="0.06" d="M82.7064 82.4062C82.7064 85.6021 85.4762 87.0935 88.6721 85.389C91.8679 83.6845 94.6377 79.6364 94.6377 76.4405C94.6377 73.2447 91.8679 71.7533 88.6721 73.4577C85.4762 74.9491 82.7064 78.9972 82.7064 82.4062Z" fill="black"/>
<path d="M120.844 54.2827C122.335 53.4304 123.827 53.4304 124.892 53.8566L127.875 55.348C128.94 55.7741 129.792 57.0524 129.792 58.7569C129.792 61.9528 127.023 66.0009 123.827 67.7054C122.122 68.5576 120.631 68.5576 119.566 68.1315C119.566 68.1315 116.583 66.6401 116.37 66.427C115.304 65.7878 114.878 64.7225 114.878 63.2311C114.878 60.0353 117.648 55.9871 120.844 54.2827Z" fill="#2D3134"/>
<path opacity="0.39" d="M119.566 68.1314C119.14 67.9183 116.583 66.64 116.37 66.64C115.305 66.0008 114.879 64.9355 114.879 63.4441C114.879 62.1658 115.305 60.6743 115.944 59.396L118.927 60.8874C118.288 62.1658 117.861 63.6572 117.861 64.9355C117.861 66.4269 118.501 67.4922 119.566 68.1314Z" fill="black"/>
<path d="M119.353 64.0824C119.353 66.6391 121.27 67.4914 123.827 66.213C126.384 64.9347 128.301 61.9519 128.301 59.3951C128.301 56.8384 126.384 55.9862 123.827 57.2646C121.27 58.5429 119.353 61.5257 119.353 64.0824Z" fill="#999999"/>
<path opacity="0.15" d="M123.401 66.0001C125.958 64.7217 127.875 61.7389 127.875 59.1822C127.875 57.9038 127.449 57.0516 126.597 56.6255C127.662 56.8385 128.301 57.9038 128.301 59.1822C128.301 61.7389 126.384 64.7217 123.827 66.0001C122.549 66.6392 121.483 66.6392 120.631 66.2131C121.483 66.6392 122.336 66.6392 123.401 66.0001Z" fill="black"/>
<path d="M121.483 62.592C121.483 63.6573 122.336 64.0835 123.401 63.4443C124.466 63.0182 125.318 61.7398 125.318 60.6745C125.318 59.6092 124.466 59.1831 123.401 59.8223C122.336 60.2484 121.483 61.5268 121.483 62.592Z" fill="#2D3134"/>
<path opacity="0.39" d="M121.483 62.592C121.483 63.6573 122.336 64.0835 123.401 63.4443C124.466 63.0182 125.318 61.7398 125.318 60.6745C125.318 59.6092 124.466 59.1831 123.401 59.8223C122.336 60.2484 121.483 61.5268 121.483 62.592Z" fill="black"/>
<path d="M121.91 62.592C121.91 63.6573 122.762 64.0835 123.827 63.4443C124.892 62.8051 125.745 61.7398 125.745 60.6745C125.745 59.6092 124.892 59.1831 123.827 59.8223C122.762 60.4615 121.91 61.7398 121.91 62.592Z" fill="#2D3134"/>
<path opacity="0.06" d="M117.861 64.7216C117.861 67.9175 120.631 69.4089 123.827 67.7044C127.023 66 129.792 61.9519 129.792 58.756C129.792 55.5601 127.023 54.0687 123.827 55.7732C120.631 57.4776 117.861 61.5257 117.861 64.7216Z" fill="black"/>
<path d="M105.291 4L135.119 18.9141V51.5121L96.7686 70.6874L66.9404 55.1341V23.1753L105.291 4Z" fill="#5671EE"/>
<path d="M135.119 48.7432V53.0043L96.7686 72.1796V67.9184L135.119 48.7432ZM66.9404 53.0043V57.2655L96.7686 72.1796V67.9184L66.9404 53.0043Z" fill="#2D3134"/>
<path opacity="0.06" d="M135.119 18.915V53.0044L96.7686 72.1797V38.0903L135.119 18.915Z" fill="black"/>
<path opacity="0.39" d="M66.9403 23.1758V57.2652L96.7686 72.1793V38.0899L66.9403 23.1758Z" fill="black"/>
<path d="M52.026 40.2209L64.8095 33.8291L94.6377 48.7432V72.8188C94.6377 73.458 93.7855 73.8841 93.1463 73.458C90.5896 71.3274 86.1153 72.8188 82.9195 76.6539C81.0019 78.9975 80.1497 81.5542 80.1497 83.6848L77.593 84.9632L47.7648 70.0491V53.0044L52.026 40.2209Z" fill="#E5E5E5"/>
<path d="M76.7412 66.8536L80.3632 56.2006C80.5763 55.7745 80.3632 55.5615 79.9371 55.3484L53.3047 42.1388C52.8786 41.9257 52.4525 42.1388 52.2394 42.5649L48.8305 52.5786C48.6175 53.0047 48.8305 53.2178 49.2566 53.4309L75.6759 67.2797C76.102 67.4927 76.7412 67.2797 76.7412 66.8536Z" fill="#3399CC"/>
<path opacity="0.15" d="M71.8408 51.3003L53.5178 42.1388C53.0917 41.9257 52.6655 42.1388 52.4525 42.5649L49.2566 51.9395L71.8408 51.3003Z" fill="black"/>
<path d="M49.0432 52.5772L49.2563 51.938C49.2563 52.3641 49.2563 52.5772 49.6824 52.7902L76.1017 66.639C76.5278 66.8521 76.9539 66.639 77.167 66.2129L76.9539 66.8521C76.7409 67.2782 76.3148 67.4913 75.8886 67.2782L49.4694 53.4294C49.0432 53.2163 48.8302 53.0033 49.0432 52.5772Z" fill="#2D3134"/>
<path d="M70.1362 65.7862L55.2221 58.3291V70.6865L70.1362 78.1436V65.7862Z" fill="white"/>
<path d="M69.0708 76.4407L56.2873 70.0489V60.0352L69.0708 66.4269V76.4407Z" fill="#2D3134"/>
<path d="M47.7651 70.0483V65.7871L77.5933 80.7012V84.9624L47.7651 70.0483ZM81.8545 82.8318L77.5933 84.9624V80.7012L81.8545 78.5706V82.8318Z" fill="#2D3134"/>
<path d="M69.0708 76.4411V78.5717L56.2873 72.1799V70.0493L69.0708 76.4411Z" fill="white"/>
<path d="M82.9199 55.7738L91.0161 51.7257C91.2292 51.5126 91.6553 51.7257 91.6553 52.1518V58.5436C91.6553 58.9697 91.4422 59.3958 91.0161 59.3958L88.2463 60.8872C88.0333 61.1003 87.8202 61.1003 87.6072 61.3133L84.8374 64.7223H84.6243L79.937 67.0659C79.724 67.279 79.2979 66.8528 79.5109 66.6398L83.1329 55.9868C82.7068 55.9868 82.7068 55.7738 82.9199 55.7738Z" fill="#3399CC"/>
<path opacity="0.15" d="M79.0845 66.4267L83.3457 64.2961H83.5587L86.3285 60.8872C86.5415 60.6741 86.7546 60.4611 86.9677 60.4611L89.7374 58.9697C90.1635 58.7566 90.3766 58.5436 90.3766 58.1174V51.9387L90.8027 51.7257C91.0158 51.5126 91.4419 51.7257 91.4419 52.1518V58.5436C91.4419 58.9697 91.2288 59.3958 90.8027 59.3958L88.033 60.8872C87.8199 61.1003 87.6068 61.1003 87.3938 61.3133L84.624 64.7223H84.411L79.7237 67.0659C79.2976 67.279 79.0845 67.0659 79.0845 66.4267Z" fill="black"/>
<path d="M77.5934 76.4413V80.7024L78.6587 80.2763V76.0151L77.5934 76.4413Z" fill="#FFCC00"/>
<path d="M69.0708 67.9181V68.5573L56.2873 62.1655V61.5264L69.0708 67.9181ZM69.0708 70.0487V70.6879L56.2873 64.2961V63.657L69.0708 70.0487ZM69.0708 72.1793V72.8185L56.2873 66.4267V65.7875L69.0708 72.1793ZM69.0708 74.3099V74.9491L56.2873 68.5573V67.9181L69.0708 74.3099Z" fill="#E5E5E5"/>
<path opacity="0.5" d="M91.4419 62.1641V63.2294L89.3113 64.2946V63.2294L91.4419 62.1641Z" fill="#2D3134"/>
<path opacity="0.5" d="M89.3113 64.7204L91.4419 63.6551V63.229L89.3113 64.2943V64.7204Z" fill="white"/>
<path d="M61.6141 52.7916C61.8271 52.5785 62.0402 52.5785 62.2533 52.7916L70.3495 61.9531C70.5625 62.1662 70.5625 62.3792 70.3495 62.5923C70.1364 62.8053 69.9234 62.8053 69.7103 62.5923L67.5797 60.0356V62.1662H66.9405V59.3964L61.6141 53.2177C61.401 53.2177 61.401 52.7916 61.6141 52.7916ZM53.944 48.5304C54.157 48.3173 54.3701 48.3173 54.5831 48.5304L62.6794 57.6919C62.8924 57.905 62.8924 58.118 62.6794 58.3311C62.4663 58.5442 62.2533 58.5442 62.0402 58.3311L60.1227 56.2005V58.5442H59.4835V55.5613L53.944 49.1696C53.7309 48.9565 53.7309 48.7435 53.944 48.5304Z" fill="#2D3134"/>
<path d="M52.0264 67.9181L47.7652 65.7875V61.5264L49.8958 62.5917C51.1741 63.2308 52.0264 64.5092 52.0264 66.0006V67.9181Z" fill="white"/>
<path opacity="0.3" d="M51.2342 64.1786C51.8285 64.9087 51.9403 65.8016 51.484 66.173C51.0277 66.5444 50.1761 66.2537 49.5818 65.5236C48.9876 64.7935 48.8758 63.9006 49.3321 63.5292C49.7884 63.1578 50.64 63.4485 51.2342 64.1786Z" fill="#2D3134"/>
<path opacity="0.3" d="M50.1683 64.1786C50.7626 64.9087 50.8744 65.8016 50.4181 66.173C49.9618 66.5444 49.1102 66.2537 48.5159 65.5236C47.9217 64.7935 47.8098 63.9006 48.2661 63.5292C48.7224 63.1578 49.5741 63.4485 50.1683 64.1786Z" fill="#2D3134"/>
<path opacity="0.3" d="M52.0264 67.9181L47.7652 65.7875V61.5264L52.0264 67.9181Z" fill="white"/>
<path d="M77.5933 80.7021L73.3321 78.5715V76.654C73.3321 75.5887 74.3974 74.9495 75.4627 75.3757L77.5933 76.441V80.7021Z" fill="white"/>
<path opacity="0.3" d="M75.7342 76.9599C76.3285 77.6899 76.4403 78.5829 75.984 78.9543C75.5277 79.3257 74.6761 79.0349 74.0818 78.3048C73.4876 77.5748 73.3758 76.6818 73.8321 76.3104C74.2884 75.939 75.14 76.2298 75.7342 76.9599Z" fill="#2D3134"/>
<path opacity="0.3" d="M76.8002 76.9599C77.3944 77.6899 77.5062 78.5829 77.0499 78.9543C76.5936 79.3257 75.742 79.0349 75.1478 78.3048C74.5535 77.5748 74.4417 76.6818 74.898 76.3104C75.3543 75.939 76.2059 76.2298 76.8002 76.9599Z" fill="#2D3134"/>
<path opacity="0.3" d="M77.5933 80.7016L73.3321 78.571L77.5933 76.4404V80.7016Z" fill="white"/>
<path opacity="0.06" d="M81.8542 55.1349L94.6377 48.7432V72.8188C94.6377 73.458 93.7855 73.8841 93.1463 73.458C90.5896 71.3274 86.1153 72.8188 82.9195 76.6538C82.2803 77.293 81.8542 77.9322 81.6411 78.7844L81.8542 78.5714V82.8326L77.593 84.9631V67.9184L81.8542 55.1349Z" fill="black"/>
<path opacity="0.39" d="M52.0263 40.2217L81.8545 55.1358L77.5933 67.9193V84.964L47.7651 70.0499V53.0052L52.0263 40.2217Z" fill="black"/>
</g>
<defs>
<filter id="filter0_d_406_646" x="0" y="0" width="195.646" height="119.999" filterUnits="userSpaceOnUse" color-interpolation-filters="sRGB">
<feFlood flood-opacity="0" result="BackgroundImageFix"/>
<feColorMatrix in="SourceAlpha" type="matrix" values="0 0 0 0 0 0 0 0 0 0 0 0 0 0 0 0 0 0 127 0" result="hardAlpha"/>
<feOffset dx="5" dy="5"/>
<feGaussianBlur stdDeviation="4.5"/>
<feComposite in2="hardAlpha" operator="out"/>
<feColorMatrix type="matrix" values="0 0 0 0 0.737255 0 0 0 0 0.737255 0 0 0 0 0.737255 0 0 0 0.25 0"/>
<feBlend mode="normal" in2="BackgroundImageFix" result="effect1_dropShadow_406_646"/>
<feBlend mode="normal" in="SourceGraphic" in2="effect1_dropShadow_406_646" result="shape"/>
</filter>
</defs>
</svg>
